<svg width="31" height="37" viewBox="0 0 31 37" fill="none" xmlns="http://www.w3.org/2000/svg">
<path d="M7.44048 32.2298V34.0751C7.44048 34.6505 7.23893 35.1396 6.83584 35.5423C6.43275 35.9451 5.94317 36.1465 5.36709 36.1465C4.79134 36.1465 4.30258 35.9451 3.90079 35.5423C3.49901 35.1396 3.29812 34.6505 3.29812 34.0751V30.8139C2.68548 30.3495 2.11806 29.6923 1.59583 28.8424C1.07361 27.9925 0.8125 27.0378 0.8125 25.9783V7.75065C0.8125 5.38042 1.9906 3.6455 4.3468 2.54589C6.70268 1.44629 10.4202 0.896484 15.4995 0.896484C20.7622 0.896484 24.5258 1.42491 26.7903 2.48176C29.0551 3.53828 30.1875 5.29457 30.1875 7.75065V25.9783C30.1875 27.0378 29.9264 27.9925 29.4042 28.8424C28.8819 29.6923 28.3145 30.3495 27.7019 30.8139V34.0751C27.7019 34.6505 27.5003 35.1396 27.0972 35.5423C26.6938 35.9451 26.2042 36.1465 25.6285 36.1465C25.0524 36.1465 24.5635 35.9451 24.1617 35.5423C23.7602 35.1396 23.5595 34.6505 23.5595 34.0751V32.2298H7.44048ZM3.75 16.5632H27.25V9.2571H3.75V16.5632ZM8.65024 26.9575C9.36275 26.9575 9.96689 26.708 10.4627 26.2089C10.9588 25.7102 11.2068 25.1046 11.2068 24.3921C11.2068 23.6796 10.9573 23.0754 10.4583 22.5796C9.95955 22.0835 9.35393 21.8355 8.64143 21.8355C7.92892 21.8355 7.32478 22.085 6.82899 22.584C6.33288 23.0828 6.08482 23.6884 6.08482 24.4009C6.08482 25.1134 6.33435 25.7175 6.8334 26.2133C7.33212 26.7094 7.93773 26.9575 8.65024 26.9575ZM22.3586 26.9575C23.0711 26.9575 23.6752 26.708 24.171 26.2089C24.6671 25.7102 24.9152 25.1046 24.9152 24.3921C24.9152 23.6796 24.6657 23.0754 24.1666 22.5796C23.6679 22.0835 23.0623 21.8355 22.3498 21.8355C21.6373 21.8355 21.0331 22.085 20.5373 22.584C20.0412 23.0828 19.7932 23.6884 19.7932 24.4009C19.7932 25.1134 20.0427 25.7175 20.5417 26.2133C21.0405 26.7094 21.6461 26.9575 22.3586 26.9575ZM4.29246 6.3196H26.8285C26.414 5.53888 25.3645 4.92934 23.68 4.491C21.9951 4.05299 19.2886 3.83398 15.5602 3.83398C11.8923 3.83398 9.21587 4.06311 7.53105 4.52136C5.84623 4.97961 4.7667 5.57902 4.29246 6.3196ZM7.66667 29.2923H23.3333C24.4104 29.2923 25.3325 28.9088 26.0995 28.1418C26.8665 27.3748 27.25 26.4527 27.25 25.3757V19.5007H3.75V25.3757C3.75 26.4527 4.13351 27.3748 4.90052 28.1418C5.66754 28.9088 6.58958 29.2923 7.66667 29.2923Z" fill="white" fill-opacity="0.6"/>
</svg>
