<svg width="12" height="12" viewBox="0 0 12 12" fill="none" xmlns="http://www.w3.org/2000/svg">
<path d="M5.05186 6.9477H0.944987C0.679015 6.9477 0.454501 6.85624 0.271445 6.67332C0.0885286 6.49026 -0.00292969 6.26575 -0.00292969 5.99978C-0.00292969 5.73381 0.0885286 5.50929 0.271445 5.32624C0.454501 5.14332 0.679015 5.05186 0.944987 5.05186H5.05186V0.944987C5.05186 0.679015 5.14332 0.454501 5.32624 0.271445C5.50929 0.0885283 5.73381 -0.00292969 5.99978 -0.00292969C6.26575 -0.00292969 6.49026 0.0885283 6.67332 0.271445C6.85624 0.454501 6.9477 0.679015 6.9477 0.944987V5.05186H11.0546C11.3205 5.05186 11.5451 5.14332 11.7281 5.32624C11.911 5.50929 12.0025 5.73381 12.0025 5.99978C12.0025 6.26575 11.911 6.49026 11.7281 6.67332C11.5451 6.85624 11.3205 6.9477 11.0546 6.9477H6.9477V11.0546C6.9477 11.3205 6.85624 11.5451 6.67332 11.7281C6.49026 11.911 6.26575 12.0025 5.99978 12.0025C5.73381 12.0025 5.50929 11.911 5.32624 11.7281C5.14332 11.5451 5.05186 11.3205 5.05186 11.0546V6.9477Z" fill="#1F4993"/>
</svg>
