<svg width="23" height="12" viewBox="0 0 23 12" fill="none" xmlns="http://www.w3.org/2000/svg">
<path d="M4.14222 10.7138C3.59847 10.7138 3.19384 10.8274 2.92834 11.0546C2.66303 11.2817 2.34353 11.4493 1.96984 11.5575C1.65409 11.6368 1.38231 11.6091 1.1545 11.4743C0.9265 11.3394 0.8125 11.1336 0.8125 10.8566C0.8125 10.6476 0.8965 10.4478 1.0645 10.2573C1.2325 10.067 1.49613 9.88023 1.85538 9.69704C1.99244 9.61191 2.26788 9.47888 2.68169 9.29795C3.09569 9.11701 3.60916 9.02654 4.22209 9.02654C5.18847 9.02654 5.85522 9.21404 6.22234 9.58904C6.58928 9.96404 7.1305 10.1515 7.846 10.1515C8.56131 10.1515 9.09784 9.96404 9.45559 9.58904C9.81334 9.21404 10.4927 9.02654 11.4935 9.02654C12.4944 9.02654 13.1853 9.21404 13.5661 9.58904C13.9469 9.96404 14.4949 10.1515 15.2102 10.1515C15.9257 10.1515 16.4537 9.96404 16.794 9.58904C17.1343 9.21404 17.7992 9.02654 18.7886 9.02654C19.2632 9.02654 19.7092 9.10154 20.1268 9.25154C20.5443 9.40154 20.9197 9.56523 21.2529 9.7426C21.5702 9.90704 21.8052 10.0844 21.958 10.2747C22.111 10.465 22.1875 10.659 22.1875 10.8566C22.1875 11.1264 22.0754 11.3305 21.8511 11.4689C21.6269 11.6073 21.3568 11.6368 21.0408 11.5575C20.6745 11.4566 20.3485 11.2908 20.0629 11.06C19.7774 10.8292 19.3721 10.7138 18.8471 10.7138C18.1389 10.7138 17.6024 10.9013 17.2375 11.2763C16.8726 11.6513 16.1933 11.8388 15.1996 11.8388C14.2058 11.8388 13.5185 11.6513 13.1377 11.2763C12.7569 10.9013 12.2088 10.7138 11.4935 10.7138C10.7782 10.7138 10.2399 10.9013 9.87859 11.2763C9.51728 11.6513 8.83394 11.8388 7.82856 11.8388C6.82337 11.8388 6.13937 11.6513 5.77656 11.2763C5.41375 10.9013 4.86897 10.7138 4.14222 10.7138ZM4.14222 6.3437C3.60991 6.3437 3.20819 6.45723 2.93706 6.68429C2.66594 6.91154 2.34353 7.07926 1.96984 7.18745C1.65409 7.26676 1.38231 7.23901 1.1545 7.1042C0.9265 6.96938 0.8125 6.76351 0.8125 6.48657C0.8125 6.27732 0.8965 6.07754 1.0645 5.88723C1.2325 5.69691 1.49613 5.51016 1.85538 5.32698C1.99244 5.24185 2.26788 5.10873 2.68169 4.9276C3.09569 4.74666 3.60916 4.6562 4.22209 4.6562C5.18847 4.6562 5.85522 4.8437 6.22234 5.2187C6.58928 5.5937 7.1305 5.7812 7.846 5.7812C8.56131 5.7812 9.09784 5.5937 9.45559 5.2187C9.81334 4.8437 10.4927 4.6562 11.4935 4.6562C12.4944 4.6562 13.1853 4.8437 13.5661 5.2187C13.9469 5.5937 14.4892 5.7812 15.1931 5.7812C15.897 5.7812 16.4249 5.5937 16.7768 5.2187C17.1286 4.8437 17.7934 4.6562 18.7714 4.6562C19.3844 4.6562 19.8996 4.74854 20.3172 4.93323C20.7347 5.11773 21.0121 5.25254 21.1491 5.33766C21.5125 5.52516 21.7764 5.71126 21.9408 5.89595C22.1053 6.08045 22.1875 6.27732 22.1875 6.48657C22.1875 6.7562 22.0725 6.96029 21.8424 7.09885C21.6123 7.23723 21.3393 7.26676 21.0234 7.18745C20.6572 7.08638 20.3342 6.92054 20.0542 6.68991C19.7745 6.4591 19.3721 6.3437 18.8471 6.3437C18.1389 6.3437 17.6024 6.5312 17.2375 6.9062C16.8726 7.2812 16.1933 7.4687 15.1996 7.4687C14.2058 7.4687 13.5185 7.2812 13.1377 6.9062C12.7569 6.5312 12.2088 6.3437 11.4935 6.3437C10.7782 6.3437 10.2456 6.5312 9.89575 6.9062C9.54606 7.2812 8.86853 7.4687 7.86316 7.4687C6.85797 7.4687 6.16534 7.2812 5.78528 6.9062C5.40522 6.5312 4.85753 6.3437 4.14222 6.3437ZM4.15291 1.97335C3.62791 1.97335 3.22441 2.08519 2.94241 2.30888C2.66041 2.53238 2.33622 2.69466 1.96984 2.79573C1.65409 2.87504 1.38231 2.8472 1.1545 2.7122C0.9265 2.57738 0.8125 2.37516 0.8125 2.10554C0.8125 1.89629 0.8965 1.69829 1.0645 1.51154C1.2325 1.32479 1.49613 1.13982 1.85538 0.956634C1.99244 0.871509 2.26788 0.738477 2.68169 0.55754C3.09569 0.376602 3.60916 0.286133 4.22209 0.286133C5.18847 0.286133 5.85522 0.473633 6.22234 0.848633C6.58928 1.22363 7.1305 1.41113 7.846 1.41113C8.56131 1.41113 9.09784 1.22363 9.45559 0.848633C9.81334 0.473633 10.4927 0.286133 11.4935 0.286133C12.4944 0.286133 13.1853 0.473633 13.5661 0.848633C13.9469 1.22363 14.4892 1.41113 15.1931 1.41113C15.897 1.41113 16.4249 1.22363 16.7768 0.848633C17.1286 0.473633 17.7934 0.286133 18.7714 0.286133C19.3844 0.286133 19.8996 0.378384 20.3172 0.562884C20.7347 0.747571 21.0121 0.882476 21.1491 0.967601C21.5125 1.1551 21.7764 1.3411 21.9408 1.5256C22.1053 1.71029 22.1875 1.90716 22.1875 2.11623C22.1875 2.38604 22.0725 2.59013 21.8424 2.72851C21.6123 2.86707 21.3393 2.8966 21.0234 2.8171C20.6572 2.71623 20.3342 2.55038 20.0542 2.31957C19.7745 2.08876 19.3721 1.97335 18.8471 1.97335C18.1389 1.97335 17.6024 2.16085 17.2375 2.53585C16.8726 2.91085 16.1933 3.09835 15.1996 3.09835C14.2058 3.09835 13.5185 2.91085 13.1377 2.53585C12.7569 2.16085 12.2088 1.97335 11.4935 1.97335C10.7782 1.97335 10.2456 2.16085 9.89575 2.53585C9.54606 2.91085 8.86853 3.09835 7.86316 3.09835C6.85797 3.09835 6.16713 2.91085 5.79063 2.53585C5.41413 2.16085 4.86822 1.97335 4.15291 1.97335Z" fill="white"/>
</svg>
