<svg width="37" height="34" viewBox="0 0 37 34" fill="none" xmlns="http://www.w3.org/2000/svg">
<path d="M18.5001 6.9033C18.1366 6.9033 17.8322 6.78072 17.587 6.53558C17.3416 6.29015 17.2189 5.98564 17.2189 5.62205V1.87695C17.2189 1.51336 17.3416 1.20899 17.587 0.963849C17.8322 0.718418 18.1366 0.595703 18.5001 0.595703C18.8637 0.595703 19.1681 0.718418 19.4133 0.963849C19.6587 1.20899 19.7814 1.51336 19.7814 1.87695V5.62205C19.7814 5.98564 19.6587 6.29015 19.4133 6.53558C19.1681 6.78072 18.8637 6.9033 18.5001 6.9033ZM26.6937 10.3067C26.446 10.0593 26.3222 9.75664 26.3222 9.39874C26.3222 9.04056 26.446 8.73776 26.6937 8.49034L29.3152 5.84242C29.5803 5.57734 29.8875 5.44481 30.2368 5.44481C30.5862 5.44481 30.8933 5.57734 31.158 5.84242C31.4058 6.08984 31.5296 6.3898 31.5296 6.74229C31.5296 7.09506 31.4058 7.39515 31.158 7.64258L28.4939 10.3067C28.2465 10.5544 27.9464 10.6783 27.5936 10.6783C27.2411 10.6783 26.9412 10.5544 26.6937 10.3067ZM31.3784 19.7816C31.0148 19.7816 30.7103 19.6589 30.4649 19.4134C30.2197 19.1683 30.0972 18.8639 30.0972 18.5003C30.0972 18.1367 30.2197 17.8324 30.4649 17.5872C30.7103 17.3418 31.0148 17.2191 31.3784 17.2191H35.1235C35.4871 17.2191 35.7915 17.3418 36.0366 17.5872C36.282 17.8324 36.4048 18.1367 36.4048 18.5003C36.4048 18.8639 36.282 19.1683 36.0366 19.4134C35.7915 19.6589 35.4871 19.7816 35.1235 19.7816H31.3784ZM29.3152 31.1582L26.6937 28.5103C26.446 28.2629 26.3222 27.9601 26.3222 27.6019C26.3222 27.244 26.446 26.9413 26.6937 26.6939C26.9412 26.4462 27.2438 26.3224 27.6017 26.3224C27.9599 26.3224 28.2627 26.4462 28.5101 26.6939L31.158 29.3153C31.4231 29.5804 31.5557 29.8876 31.5557 30.237C31.5557 30.5863 31.4231 30.8934 31.158 31.1582C30.8933 31.4233 30.5862 31.5558 30.2368 31.5558C29.8875 31.5558 29.5803 31.4233 29.3152 31.1582ZM8.52305 10.3234L5.84225 7.64258C5.59454 7.39515 5.47069 7.09235 5.47069 6.73417C5.47069 6.37599 5.59454 6.07874 5.84225 5.84242C6.10704 5.57734 6.41141 5.44481 6.75536 5.44481C7.0993 5.44481 7.40367 5.57734 7.66846 5.84242L10.3066 8.50657C10.5543 8.75399 10.6808 9.05679 10.6862 9.41497C10.6916 9.77315 10.5706 10.076 10.3232 10.3234C10.0758 10.5708 9.77569 10.6945 9.42292 10.6945C9.07043 10.6945 8.77048 10.5708 8.52305 10.3234ZM8.743 30.5573H16.1021C16.9232 30.5573 17.6268 30.2643 18.2127 29.6784C18.7987 29.0924 19.0917 28.3889 19.0917 27.5677C19.0917 26.7463 18.8085 26.0455 18.2422 25.4652C17.6762 24.8846 16.9824 24.5944 16.161 24.5944H14.246L13.5067 22.8237C13.0862 21.8403 12.4296 21.06 11.537 20.4828C10.6447 19.9057 9.65853 19.6171 8.57857 19.6171C7.07837 19.6171 5.80538 20.14 4.7596 21.1858C3.71381 22.2316 3.19092 23.5047 3.19092 25.0052C3.19092 26.5493 3.73018 27.8606 4.80871 28.9391C5.88752 30.0179 7.19895 30.5573 8.743 30.5573ZM8.743 33.1198C6.50024 33.1198 4.5872 32.328 3.00386 30.7444C1.42023 29.161 0.628418 27.248 0.628418 25.0052C0.628418 22.7952 1.40101 20.9176 2.9462 19.3724C4.49139 17.8272 6.36884 17.0546 8.57857 17.0546C10.2103 17.0546 11.6953 17.5065 13.0335 18.4102C14.3717 19.3136 15.3441 20.5208 15.9509 22.0319C17.4927 22.0319 18.8259 22.5538 19.9505 23.5976C21.0752 24.6411 21.6431 26.0114 21.6542 27.7087C21.6189 29.2222 21.0658 30.5025 19.9949 31.5494C18.9238 32.5963 17.6262 33.1198 16.1021 33.1198H8.743ZM21.6213 27.3802C21.5117 26.9532 21.402 26.5376 21.2924 26.1336C21.1831 25.7296 21.0736 25.314 20.964 24.8869C22.2783 24.3348 23.335 23.4867 24.1342 22.3424C24.9337 21.1981 25.3335 19.9174 25.3335 18.5003C25.3335 16.6212 24.6644 15.0125 23.3262 13.6743C21.988 12.3361 20.3793 11.667 18.5001 11.667C16.7591 11.667 15.2424 12.2414 13.95 13.3903C12.6579 14.5388 11.9199 15.9838 11.736 17.7252C11.3089 17.6155 10.873 17.5148 10.4283 17.4228C9.98382 17.3308 9.54805 17.23 9.12097 17.1204C9.45381 14.7902 10.5133 12.8716 12.2993 11.3646C14.0854 9.85786 16.1523 9.10448 18.5001 9.10448C21.1065 9.10448 23.3241 10.0189 25.1528 11.8476C26.9816 13.6764 27.896 15.894 27.896 18.5003C27.896 20.5065 27.3216 22.3139 26.1727 23.9226C25.0241 25.5312 23.507 26.6838 21.6213 27.3802Z" fill="white"/>
</svg>
