<svg width="12" height="12" viewBox="0 0 12 12" fill="none" xmlns="http://www.w3.org/2000/svg">
<path d="M5.05186 6.94867H0.944987C0.679015 6.94867 0.454501 6.85721 0.271445 6.6743C0.0885286 6.49124 -0.00292969 6.26673 -0.00292969 6.00076C-0.00292969 5.73478 0.0885286 5.51027 0.271445 5.32721C0.454501 5.1443 0.679015 5.05284 0.944987 5.05284H5.05186V0.945964C5.05186 0.679991 5.14332 0.455477 5.32624 0.272422C5.50929 0.0895049 5.73381 -0.00195312 5.99978 -0.00195312C6.26575 -0.00195312 6.49026 0.0895049 6.67332 0.272422C6.85624 0.455477 6.9477 0.679991 6.9477 0.945964V5.05284H11.0546C11.3205 5.05284 11.5451 5.1443 11.7281 5.32721C11.911 5.51027 12.0025 5.73478 12.0025 6.00076C12.0025 6.26673 11.911 6.49124 11.7281 6.6743C11.5451 6.85721 11.3205 6.94867 11.0546 6.94867H6.9477V11.0555C6.9477 11.3215 6.85624 11.546 6.67332 11.7291C6.49026 11.912 6.26575 12.0035 5.99978 12.0035C5.73381 12.0035 5.50929 11.912 5.32624 11.7291C5.14332 11.546 5.05186 11.3215 5.05186 11.0555V6.94867Z" fill="white"/>
</svg>
