<svg width="35" height="35" viewBox="0 0 35 35" fill="none" xmlns="http://www.w3.org/2000/svg">
<path d="M3.45292 34.5971C3.09977 34.5971 2.75396 34.5241 2.41549 34.3782C2.07703 34.2327 1.79013 34.0432 1.55481 33.8098L0.391067 32.6461C0.102213 32.3576 0.0302444 32.0331 0.175161 31.6728C0.320078 31.3125 0.595387 31.1323 1.00109 31.1323H33.9613C34.367 31.1323 34.6423 31.3125 34.7872 31.6728C34.9321 32.0331 34.8602 32.3576 34.5713 32.6461L33.4076 33.8098C33.1723 34.0432 32.8854 34.2327 32.5469 34.3782C32.2084 34.5241 31.8626 34.5971 31.5095 34.5971H3.45292ZM0.854213 28.9855C1.06278 28.4482 1.33335 27.9436 1.66594 27.4717C1.99853 26.9997 2.38073 26.5604 2.81255 26.1537V11.1725H2.02187C1.68438 11.1725 1.40548 11.0623 1.18517 10.842C0.964532 10.6217 0.854213 10.3429 0.854213 10.0058C0.854213 9.66895 0.964532 9.39005 1.18517 9.16909C1.40548 8.94812 1.68438 8.83764 2.02187 8.83764H2.81255V7.1804H2.02187C1.68438 7.1804 1.40548 7.07024 1.18517 6.84993C0.964532 6.62962 0.854213 6.35088 0.854213 6.01373C0.854213 5.67689 0.964532 5.39799 1.18517 5.17703C1.40548 4.95606 1.68438 4.84558 2.02187 4.84558H2.81255V3.18834H2.02187C1.68438 3.18834 1.40548 3.07818 1.18517 2.85787C0.964532 2.63756 0.854213 2.35898 0.854213 2.02215C0.854213 1.68499 0.964532 1.40593 1.18517 1.18496C1.40548 0.963999 1.68438 0.853516 2.02187 0.853516H13.7719C14.7452 0.853516 15.5784 1.20014 16.2717 1.89339C16.9649 2.58664 17.3116 3.42007 17.3116 4.39369V4.84558H32.9782C33.3157 4.84558 33.5946 4.95573 33.8149 5.17605C34.0356 5.39636 34.1459 5.6751 34.1459 6.01225C34.1459 6.34909 34.0356 6.62799 33.8149 6.84895C33.5946 7.06992 33.3157 7.1804 32.9782 7.1804H17.3116V7.62641C17.3116 8.60688 16.9649 9.44309 16.2717 10.135C15.5784 10.8267 14.7452 11.1725 13.7719 11.1725H10.0432V23.8341C10.6509 23.9242 11.2492 24.0691 11.838 24.2688C12.4268 24.4686 12.9735 24.7555 13.4781 25.1295C14.063 23.0834 15.2103 21.4351 16.9199 20.1847C18.6298 18.9343 20.5544 18.3091 22.6935 18.3091C25.3187 18.3091 27.5572 19.209 29.4092 21.0087C31.2614 22.8084 32.1875 25.0104 32.1875 27.6146V28.9855H0.854213ZM16.3779 26.0485H28.8285C28.4868 24.6473 27.7491 23.4967 26.6156 22.5969C25.482 21.6967 24.1747 21.2466 22.6935 21.2466C21.1719 21.2466 19.8243 21.6866 18.6506 22.5665C17.4769 23.4465 16.7193 24.6071 16.3779 26.0485ZM10.0432 4.84558H14.3745V3.79102C14.3745 3.61542 14.3179 3.47099 14.2047 3.35774C14.0917 3.24481 13.9475 3.18834 13.7719 3.18834H10.0432V4.84558ZM10.0432 8.83764H13.7719C13.9475 8.83764 14.0917 8.78118 14.2047 8.66824C14.3179 8.55499 14.3745 8.41056 14.3745 8.23496V7.1804H10.0432V8.83764ZM5.14737 4.84558H7.70838V3.18834H5.14737V4.84558ZM5.14737 8.83764H7.70838V7.1804H5.14737V8.83764ZM5.14737 24.5307C5.56188 24.3173 5.97738 24.1541 6.39385 24.0412C6.81065 23.9279 7.24882 23.8367 7.70838 23.7675V11.1725H5.14737V24.5307Z" fill="white" fill-opacity="0.6"/>
</svg>
