<svg width="39" height="26" viewBox="0 0 39 26" fill="none" xmlns="http://www.w3.org/2000/svg">
<path d="M0.895752 23.7604V14.4583C0.895752 13.7279 1.06906 13.0193 1.41569 12.3326C1.76199 11.6458 2.24145 11.0815 2.85409 10.6396V5.64583C2.85409 4.27761 3.328 3.11958 4.27583 2.17175C5.22367 1.22392 6.3817 0.75 7.74992 0.75H16.0728C16.786 0.75 17.4249 0.888715 17.9896 1.16615C18.5545 1.44358 19.058 1.82708 19.4999 2.31667C19.9418 1.82708 20.4453 1.44358 21.0103 1.16615C21.5749 0.888715 22.2138 0.75 22.927 0.75H31.2499C32.6181 0.75 33.7762 1.22392 34.724 2.17175C35.6718 3.11958 36.1458 4.27761 36.1458 5.64583V10.6396C36.7584 11.0815 37.2379 11.6458 37.5841 12.3326C37.9308 13.0193 38.1041 13.7279 38.1041 14.4583V23.7604C38.1041 24.1766 37.9632 24.5253 37.6816 24.8067C37.3999 25.0883 37.051 25.2292 36.6348 25.2292C36.2184 25.2292 35.8696 25.0883 35.5886 24.8067C35.3073 24.5253 35.1666 24.1766 35.1666 23.7604V21.3125H3.83325V23.7604C3.83325 24.1766 3.69241 24.5253 3.41074 24.8067C3.12907 25.0883 2.78016 25.2292 2.36401 25.2292C1.94754 25.2292 1.59879 25.0883 1.31777 24.8067C1.03643 24.5253 0.895752 24.1766 0.895752 23.7604ZM20.9687 9.5625H33.2083V5.64583C33.2083 5.09097 33.0206 4.62587 32.6452 4.25052C32.2699 3.87517 31.8048 3.6875 31.2499 3.6875H22.927C22.3721 3.6875 21.907 3.87517 21.5317 4.25052C21.1563 4.62587 20.9687 5.09097 20.9687 5.64583V9.5625ZM5.79158 9.5625H18.0312V5.64583C18.0312 5.09097 17.8435 4.62587 17.4681 4.25052C17.0928 3.87517 16.6277 3.6875 16.0728 3.6875H7.74992C7.19506 3.6875 6.72995 3.87517 6.35461 4.25052C5.97926 4.62587 5.79158 5.09097 5.79158 5.64583V9.5625ZM3.83325 18.375H35.1666V14.4583C35.1666 13.9035 34.9789 13.4384 34.6036 13.063C34.2282 12.6877 33.7631 12.5 33.2083 12.5H5.79158C5.23672 12.5 4.77162 12.6877 4.39627 13.063C4.02093 13.4384 3.83325 13.9035 3.83325 14.4583V18.375Z" fill="white" fill-opacity="0.6"/>
</svg>
