<svg width="37" height="41" viewBox="0 0 37 41" fill="none" xmlns="http://www.w3.org/2000/svg">
<path d="M15.5 41.0073C15.1185 41.0073 14.7369 40.9416 14.3554 40.81C13.9735 40.6782 13.6282 40.4742 13.3194 40.1981C11.5621 38.5785 9.91761 36.9107 8.38587 35.1945C6.85445 33.4787 5.52328 31.7634 4.39234 30.0485C3.26107 28.3337 2.36595 26.634 1.70697 24.9495C1.048 23.2647 0.718506 21.6376 0.718506 20.0683C0.718506 16.9327 1.51375 14.0989 3.10425 11.5667C4.69474 9.03461 6.9336 7.1799 9.82084 6.00262C10.707 5.61846 11.6392 5.34103 12.6173 5.17033C13.5952 4.99963 14.5837 4.89796 15.5827 4.86532C15.9989 4.86532 16.3478 5.00044 16.6295 5.27069C16.9108 5.54094 17.0515 5.88479 17.0515 6.30224C17.0515 6.72002 16.9108 7.07954 16.6295 7.3808C16.3478 7.68206 15.9989 7.83268 15.5827 7.83268C14.7651 7.83268 13.9645 7.89992 13.1808 8.03439C12.3972 8.16854 11.6111 8.39505 10.8225 8.71393C8.51267 9.67286 6.74071 11.1868 5.50663 13.2558C4.27288 15.3245 3.65601 17.5953 3.65601 20.0683C3.65601 22.436 4.67222 25.1946 6.70464 28.3443C8.73707 31.4939 11.6689 34.7836 15.5 38.2133C17.4032 36.5112 19.086 34.8422 20.5486 33.2063C22.0108 31.5705 23.2441 29.9831 24.2484 28.4441C25.0141 27.2567 25.6576 26.076 26.1788 24.902C26.6997 23.7283 27.0517 22.5703 27.2348 21.4279C27.3278 20.8656 27.5382 20.4721 27.8659 20.2475C28.1933 20.0227 28.5391 19.9367 28.9033 19.9895C29.2673 20.0421 29.5829 20.1907 29.8502 20.4355C30.1178 20.6803 30.2252 21.0111 30.1723 21.4279C29.9488 23.3262 29.3976 25.1517 28.519 26.9044C27.64 28.6574 26.6095 30.3382 25.4273 31.9466C24.0865 33.7316 22.7049 35.3347 21.2825 36.7558C19.8604 38.1769 18.666 39.318 17.6992 40.179C17.395 40.4551 17.0492 40.6622 16.6618 40.8002C16.2747 40.9383 15.8874 41.0073 15.5 41.0073ZM15.5034 23.2355C16.4777 23.2355 17.3106 22.8885 18.0023 22.1946C18.6942 21.5007 19.0402 20.6666 19.0402 19.6923C19.0402 18.7181 18.6932 17.885 17.9993 17.193C17.3054 16.5014 16.4712 16.1556 15.4966 16.1556C14.5223 16.1556 13.6894 16.5026 12.9977 17.1965C12.3058 17.8904 11.9598 18.7246 11.9598 19.6992C11.9598 20.6735 12.3068 21.5064 13.0007 22.198C13.6946 22.8897 14.5288 23.2355 15.5034 23.2355ZM27.25 9.79102V14.1973C27.25 14.6134 27.3908 14.9623 27.6725 15.244C27.9542 15.5253 28.3031 15.666 28.7192 15.666C29.1357 15.666 29.4845 15.5253 29.7655 15.244C30.0468 14.9623 30.1875 14.6134 30.1875 14.1973V9.79102H34.5938C35.0099 9.79102 35.3587 9.65018 35.64 9.3685C35.9217 9.08683 36.0625 8.73792 36.0625 8.32178C36.0625 7.9053 35.9217 7.55656 35.64 7.27554C35.3587 6.99419 35.0099 6.85352 34.5938 6.85352H30.1875V2.44727C30.1875 2.03112 30.0467 1.68237 29.765 1.40103C29.4833 1.11935 29.1344 0.978516 28.7183 0.978516C28.3018 0.978516 27.953 1.11935 27.672 1.40103C27.3907 1.68237 27.25 2.03112 27.25 2.44727V6.85352H22.8438C22.4276 6.85352 22.0787 6.99435 21.797 7.27603C21.5157 7.5577 21.375 7.90661 21.375 8.32276C21.375 8.73923 21.5157 9.08797 21.797 9.369C22.0787 9.65034 22.4276 9.79102 22.8438 9.79102H27.25Z" fill="white" fill-opacity="0.6"/>
</svg>
