<svg width="12" height="12" viewBox="0 0 12 12" fill="none" xmlns="http://www.w3.org/2000/svg">
<path d="M5.05211 6.94867H0.945231C0.679259 6.94867 0.454745 6.85721 0.271689 6.6743C0.0887728 6.49124 -0.00268555 6.26673 -0.00268555 6.00076C-0.00268555 5.73478 0.0887728 5.51027 0.271689 5.32721C0.454745 5.1443 0.679259 5.05284 0.945231 5.05284H5.05211V0.945964C5.05211 0.679991 5.14356 0.455477 5.32648 0.272422C5.50954 0.0895049 5.73405 -0.00195312 6.00002 -0.00195312C6.266 -0.00195312 6.49051 0.0895049 6.67356 0.272422C6.85648 0.455477 6.94794 0.679991 6.94794 0.945964V5.05284H11.0548C11.3208 5.05284 11.5453 5.1443 11.7284 5.32721C11.9113 5.51027 12.0027 5.73478 12.0027 6.00076C12.0027 6.26673 11.9113 6.49124 11.7284 6.6743C11.5453 6.85721 11.3208 6.94867 11.0548 6.94867H6.94794V11.0555C6.94794 11.3215 6.85648 11.546 6.67356 11.7291C6.49051 11.912 6.266 12.0035 6.00002 12.0035C5.73405 12.0035 5.50954 11.912 5.32648 11.7291C5.14356 11.546 5.05211 11.3215 5.05211 11.0555V6.94867Z" fill="white" fill-opacity="0.8"/>
</svg>
