<svg width="15" height="15" viewBox="0 0 15 15" fill="none" xmlns="http://www.w3.org/2000/svg">
<path d="M6.71883 8.2806H1.5105C1.28914 8.2806 1.10364 8.20569 0.953988 8.05586C0.804161 7.90603 0.729248 7.72044 0.729248 7.49909C0.729248 7.27756 0.804161 7.09206 0.953988 6.94258C1.10364 6.79293 1.28914 6.7181 1.5105 6.7181H6.71883V1.50977C6.71883 1.28841 6.79375 1.10291 6.94357 0.953255C7.0934 0.803429 7.27899 0.728516 7.50034 0.728516C7.72187 0.728516 7.90737 0.803429 8.05685 0.953255C8.20651 1.10291 8.28133 1.28841 8.28133 1.50977V6.7181H13.4897C13.711 6.7181 13.8965 6.79301 14.0462 6.94284C14.196 7.09267 14.2709 7.27826 14.2709 7.49961C14.2709 7.72114 14.196 7.90664 14.0462 8.05612C13.8965 8.20577 13.711 8.2806 13.4897 8.2806H8.28133V13.4889C8.28133 13.7103 8.20642 13.8958 8.05659 14.0454C7.90677 14.1953 7.72118 14.2702 7.49982 14.2702C7.27829 14.2702 7.09279 14.1953 6.94331 14.0454C6.79366 13.8958 6.71883 13.7103 6.71883 13.4889V8.2806Z" fill="white" fill-opacity="0.8"/>
</svg>
