<svg width="13" height="13" viewBox="0 0 13 13" fill="none" xmlns="http://www.w3.org/2000/svg">
<path d="M1.75998 12.5221C1.40216 12.5221 1.09928 12.3982 0.851367 12.1503C0.603451 11.9023 0.479492 11.5995 0.479492 11.2416V1.76096C0.479492 1.40313 0.603451 1.10026 0.851367 0.852344C1.09928 0.604427 1.40216 0.480469 1.75998 0.480469H5.69654C5.8473 0.480469 5.97356 0.531351 6.07533 0.633115C6.17697 0.73476 6.22779 0.860962 6.22779 1.01172C6.22779 1.16248 6.17697 1.28868 6.07533 1.39032C5.97356 1.49209 5.8473 1.54297 5.69654 1.54297H1.75998C1.70544 1.54297 1.6555 1.56569 1.61017 1.61115C1.56472 1.65648 1.54199 1.70642 1.54199 1.76096V11.2416C1.54199 11.2962 1.56472 11.3461 1.61017 11.3915C1.6555 11.4369 1.70544 11.4596 1.75998 11.4596H11.2407C11.2952 11.4596 11.3451 11.4369 11.3905 11.3915C11.4359 11.3461 11.4587 11.2962 11.4587 11.2416V7.30508C11.4587 7.15433 11.5095 7.02807 11.6113 6.9263C11.713 6.82466 11.8392 6.77383 11.9899 6.77383C12.1407 6.77383 12.2669 6.82466 12.3685 6.9263C12.4703 7.02807 12.5212 7.15433 12.5212 7.30508V11.2416C12.5212 11.5995 12.3972 11.9023 12.1493 12.1503C11.9014 12.3982 11.5985 12.5221 11.2407 12.5221H1.75998ZM11.4587 2.28938L5.25809 8.49013C5.15998 8.58811 5.03667 8.63829 4.88816 8.64065C4.73976 8.64289 4.61421 8.59272 4.5115 8.49013C4.40891 8.38742 4.35762 8.26299 4.35762 8.11683C4.35762 7.97068 4.40891 7.84625 4.5115 7.74354L10.7123 1.54297H8.44824C8.29749 1.54297 8.17128 1.49209 8.06964 1.39032C7.96787 1.28868 7.91699 1.16248 7.91699 1.01172C7.91699 0.860962 7.96787 0.73476 8.06964 0.633115C8.17128 0.531351 8.29749 0.480469 8.44824 0.480469H11.8808C12.0635 0.480469 12.2158 0.541562 12.3379 0.66375C12.4601 0.785819 12.5212 0.93817 12.5212 1.1208V4.55339C12.5212 4.70414 12.4703 4.83034 12.3685 4.93199C12.2669 5.03375 12.1407 5.08464 11.9899 5.08464C11.8392 5.08464 11.713 5.03375 11.6113 4.93199C11.5095 4.83034 11.4587 4.70414 11.4587 4.55339V2.28938Z" fill="white" fill-opacity="0.6"/>
</svg>
