<svg width="36" height="34" viewBox="0 0 36 34" fill="none" xmlns="http://www.w3.org/2000/svg">
<path d="M4.87559 30.7119V17.6709L2.6544 19.3977C2.34699 19.622 2.02163 19.7105 1.67834 19.6633C1.33534 19.6163 1.05155 19.4391 0.826965 19.1317C0.602673 18.8243 0.511236 18.499 0.552652 18.1557C0.594361 17.8124 0.759881 17.5286 1.04921 17.3043L4.87559 14.363V10.6543C4.87559 10.2818 5.0013 9.97004 5.25271 9.71891C5.50384 9.4675 5.81563 9.34179 6.18809 9.34179C6.56055 9.34179 6.87234 9.4675 7.12347 9.71891C7.37488 9.97004 7.50059 10.2818 7.50059 10.6543V12.3505L16.0756 5.8116C16.6613 5.37177 17.3057 5.15185 18.0089 5.15185C18.7124 5.15185 19.3513 5.37177 19.9256 5.8116L34.952 17.3043C35.2413 17.5286 35.4068 17.8124 35.4485 18.1557C35.4899 18.499 35.3985 18.8243 35.1742 19.1317C34.9496 19.4211 34.6658 19.5894 34.3228 19.6366C33.9795 19.6836 33.6631 19.5949 33.3735 19.3706L31.1256 17.6709V30.7119C31.1256 31.5846 30.8166 32.3301 30.1985 32.9484C29.5802 33.5665 28.8347 33.8755 27.962 33.8755H8.03915C7.16649 33.8755 6.42099 33.5665 5.80265 32.9484C5.18461 32.3301 4.87559 31.5846 4.87559 30.7119ZM8.03915 31.2505H15.9142V25.664C15.9142 25.0784 16.1154 24.5841 16.5179 24.1814C16.9207 23.7786 17.4149 23.5772 18.0006 23.5772C18.5863 23.5772 19.0805 23.7786 19.4833 24.1814C19.8858 24.5841 20.087 25.0784 20.087 25.664V31.2505H27.962C28.1192 31.2505 28.2483 31.2 28.3492 31.0991C28.4501 30.9982 28.5006 30.8691 28.5006 30.7119V15.6755L18.3204 7.92166C18.2306 7.84321 18.124 7.80398 18.0006 7.80398C17.8772 7.80398 17.7706 7.84321 17.6808 7.92166L7.50059 15.6755V30.7119C7.50059 30.8691 7.55105 30.9982 7.65197 31.0991C7.75288 31.2 7.88194 31.2505 8.03915 31.2505ZM8.03915 31.2505H28.5006H7.50059H8.03915ZM6.49434 7.42379C6.02534 7.42379 5.65624 7.23085 5.38703 6.84498C5.11782 6.4591 5.08763 6.0585 5.29646 5.64316C5.64646 4.79733 6.19728 4.12548 6.9489 3.6276C7.70024 3.12943 8.53484 2.88035 9.45271 2.88035C9.85201 2.88035 10.2255 2.77214 10.5732 2.55573C10.9208 2.33902 11.1565 2.0456 11.2802 1.67548C11.3811 1.45789 11.5303 1.28464 11.7277 1.15573C11.9252 1.02652 12.1506 0.961914 12.4041 0.961914C12.8842 0.961914 13.2571 1.15777 13.5228 1.54948C13.7888 1.94089 13.8174 2.34967 13.6085 2.77579C13.2474 3.61054 12.6939 4.27408 11.9478 4.76641C11.202 5.25904 10.3703 5.50535 9.45271 5.50535C9.05313 5.50535 8.67951 5.60073 8.33184 5.79148C7.98417 5.98223 7.74865 6.27156 7.62528 6.65948C7.51299 6.88843 7.36263 7.07306 7.17421 7.21335C6.9858 7.35364 6.75917 7.42379 6.49434 7.42379Z" fill="#D9E74C"/>
</svg>
