<svg width="36" height="34" viewBox="0 0 36 34" fill="none" xmlns="http://www.w3.org/2000/svg">
<path d="M4.87535 30.7119V17.6709L2.65416 19.3977C2.34674 19.622 2.02139 19.7105 1.6781 19.6633C1.3351 19.6163 1.0513 19.4391 0.826721 19.1317C0.602429 18.8243 0.510992 18.499 0.552408 18.1557C0.594117 17.8124 0.759637 17.5286 1.04897 17.3043L4.87535 14.363V10.6543C4.87535 10.2818 5.00105 9.97004 5.25247 9.71891C5.5036 9.4675 5.81539 9.34179 6.18785 9.34179C6.5603 9.34179 6.8721 9.4675 7.12322 9.71891C7.37464 9.97004 7.50035 10.2818 7.50035 10.6543V12.3505L16.0753 5.8116C16.661 5.37177 17.3054 5.15185 18.0087 5.15185C18.7122 5.15185 19.3511 5.37177 19.9253 5.8116L34.9517 17.3043C35.2411 17.5286 35.4066 17.8124 35.4483 18.1557C35.4897 18.499 35.3983 18.8243 35.174 19.1317C34.9494 19.4211 34.6656 19.5894 34.3226 19.6366C33.9793 19.6836 33.6628 19.5949 33.3732 19.3706L31.1253 17.6709V30.7119C31.1253 31.5846 30.8163 32.3301 30.1983 32.9484C29.5799 33.5665 28.8344 33.8755 27.9618 33.8755H8.03891C7.16624 33.8755 6.42074 33.5665 5.80241 32.9484C5.18437 32.3301 4.87535 31.5846 4.87535 30.7119ZM8.03891 31.2505H15.9139V25.664C15.9139 25.0784 16.1152 24.5841 16.5177 24.1814C16.9204 23.7786 17.4147 23.5772 18.0003 23.5772C18.586 23.5772 19.0802 23.7786 19.483 24.1814C19.8855 24.5841 20.0868 25.0784 20.0868 25.664V31.2505H27.9618C28.119 31.2505 28.2481 31.2 28.349 31.0991C28.4499 30.9982 28.5003 30.8691 28.5003 30.7119V15.6755L18.3202 7.92166C18.2303 7.84321 18.1237 7.80398 18.0003 7.80398C17.877 7.80398 17.7704 7.84321 17.6805 7.92166L7.50035 15.6755V30.7119C7.50035 30.8691 7.5508 30.9982 7.65172 31.0991C7.75264 31.2 7.8817 31.2505 8.03891 31.2505ZM8.03891 31.2505H28.5003H7.50035H8.03891ZM6.4941 7.42379C6.0251 7.42379 5.65599 7.23085 5.38678 6.84498C5.11757 6.4591 5.08739 6.0585 5.29622 5.64316C5.64622 4.79733 6.19703 4.12548 6.94866 3.6276C7.69999 3.12943 8.5346 2.88035 9.45247 2.88035C9.85176 2.88035 10.2252 2.77214 10.5729 2.55573C10.9206 2.33902 11.1562 2.0456 11.2799 1.67548C11.3808 1.45789 11.53 1.28464 11.7275 1.15573C11.9249 1.02652 12.1504 0.961914 12.4038 0.961914C12.8839 0.961914 13.2568 1.15777 13.5225 1.54948C13.7885 1.94089 13.8171 2.34967 13.6083 2.77579C13.2472 3.61054 12.6936 4.27408 11.9475 4.76641C11.2017 5.25904 10.3701 5.50535 9.45247 5.50535C9.05289 5.50535 8.67926 5.60073 8.3316 5.79148C7.98393 5.98223 7.74841 6.27156 7.62503 6.65948C7.51274 6.88843 7.36239 7.07306 7.17397 7.21335C6.98555 7.35364 6.75893 7.42379 6.4941 7.42379Z" fill="white"/>
</svg>
