<svg width="15" height="8" viewBox="0 0 15 8" fill="none" xmlns="http://www.w3.org/2000/svg">
<path d="M7.50014 2.25598L2.16444 7.59168C2.02372 7.73241 1.85803 7.801 1.66737 7.79745C1.47659 7.79379 1.31084 7.7216 1.17012 7.58088C1.0294 7.44004 0.959037 7.27429 0.959038 7.08363C0.959038 6.89297 1.0294 6.72722 1.17012 6.58638L6.59294 1.15275C6.72103 1.02466 6.86453 0.929748 7.02343 0.868005C7.18234 0.806262 7.34124 0.77539 7.50014 0.77539C7.65905 0.77539 7.81795 0.806262 7.97685 0.868005C8.13575 0.929748 8.27925 1.02466 8.40734 1.15276L13.8411 6.58638C13.9819 6.72722 14.0504 6.8948 14.0467 7.08912C14.0431 7.28344 13.9709 7.45096 13.8302 7.59168C13.6894 7.73241 13.5237 7.80277 13.3329 7.80277C13.1423 7.80277 12.9766 7.73241 12.8358 7.59168L7.50014 2.25598Z" fill="#D9E74C"/>
</svg>
