<svg width="21" height="23" viewBox="0 0 21 23" fill="none" xmlns="http://www.w3.org/2000/svg">
<path d="M10.4783 22.1701C9.7889 22.1701 9.11784 22.0897 8.46515 21.929C7.81265 21.7682 7.1294 21.5132 6.4154 21.164C5.62059 21.5058 4.85362 21.7496 4.11449 21.8953C3.37537 22.041 2.59762 22.1326 1.78124 22.1701C1.5418 22.1817 1.34137 22.1066 1.17993 21.9448C1.0183 21.783 0.937492 21.5825 0.937492 21.3435C0.937492 21.1042 1.0184 20.9044 1.18021 20.7441C1.34184 20.5838 1.54218 20.4966 1.78124 20.4826C2.1808 20.4638 2.5619 20.4321 2.92452 20.3875C3.28734 20.3429 3.64546 20.2747 3.9989 20.183C4.35215 20.0915 4.70943 19.9765 5.07074 19.8379C5.43205 19.6996 5.80527 19.5402 6.1904 19.3598C6.27684 19.3223 6.36337 19.3036 6.44999 19.3036C6.53643 19.3036 6.62296 19.3223 6.70959 19.3598C7.32121 19.7003 7.91362 19.9718 8.48681 20.1743C9.06018 20.377 9.72402 20.4783 10.4783 20.4783C11.2326 20.4783 11.8965 20.377 12.4699 20.1743C13.0432 19.9718 13.6356 19.7003 14.2471 19.3598C14.3337 19.3223 14.4202 19.3036 14.5067 19.3036C14.5933 19.3036 14.6798 19.3223 14.7663 19.3598C15.1587 19.5473 15.5355 19.7103 15.8966 19.8489C16.2579 19.9873 16.6171 20.1004 16.9741 20.1884C17.3311 20.2765 17.6936 20.3421 18.0617 20.3853C18.4299 20.4286 18.8156 20.461 19.2187 20.4826C19.4578 20.4966 19.6581 20.5843 19.8198 20.7455C19.9816 20.907 20.0625 21.1068 20.0625 21.3452C20.0625 21.5837 19.9817 21.7836 19.8201 21.9451C19.6586 22.1067 19.4582 22.1817 19.2187 22.1701C18.3939 22.1299 17.6087 22.0395 16.863 21.8987C16.1171 21.758 15.349 21.5132 14.5587 21.164C13.8447 21.5132 13.1586 21.7682 12.5002 21.929C11.8417 22.0897 11.1678 22.1701 10.4783 22.1701ZM10.4837 18.0121C9.52106 18.0121 8.65931 17.7056 7.89843 17.0927C7.13756 16.4795 6.59127 15.9783 6.25959 15.5888C5.88177 15.9769 5.50387 16.3159 5.12587 16.6058C4.74805 16.8957 4.36518 17.1473 3.97724 17.3607C3.65699 17.5324 3.33065 17.5318 2.99821 17.3587C2.66577 17.1857 2.44687 16.9188 2.34149 16.5583L0.685773 11.0472C0.607023 10.7708 0.632992 10.5136 0.76368 10.2754C0.894555 10.0375 1.09893 9.87597 1.3768 9.79084L2.89555 9.34084V5.09622C2.89555 4.53691 3.09468 4.05813 3.49293 3.65987C3.89118 3.26162 4.36987 3.0625 4.92899 3.0625H8.0444V1.8295C8.0444 1.54131 8.1419 1.29981 8.3369 1.105C8.53171 0.910001 8.77321 0.8125 9.0614 0.8125H11.8953C12.1835 0.8125 12.425 0.910001 12.6198 1.105C12.8148 1.29981 12.9123 1.54131 12.9123 1.8295V3.0625H16.0277C16.5868 3.0625 17.0656 3.26162 17.464 3.65987C17.8623 4.05813 18.0614 4.53691 18.0614 5.09622V9.34084L19.5799 9.79084C19.8579 9.87597 20.0623 10.0375 20.193 10.2754C20.3237 10.5136 20.3498 10.771 20.2715 11.0478L18.6259 16.569C18.5207 16.9224 18.3037 17.1838 17.9748 17.3531C17.6459 17.5226 17.3178 17.5251 16.9904 17.3607C16.5908 17.1473 16.2039 16.8975 15.8297 16.6112C15.4554 16.3248 15.0816 15.9841 14.7081 15.5888C14.3617 15.9783 13.8118 16.4795 13.0582 17.0927C12.3047 17.7056 11.4465 18.0121 10.4837 18.0121ZM4.58277 5.05291V8.88016L9.93749 7.34622C10.1179 7.28997 10.2982 7.26184 10.4783 7.26184C10.6587 7.26184 10.839 7.28997 11.0192 7.34622L16.3739 8.88016V5.05291C16.3739 4.96628 16.3432 4.89419 16.2819 4.83663C16.2206 4.77888 16.1467 4.75 16.06 4.75H4.89665C4.81002 4.75 4.73605 4.77888 4.67474 4.83663C4.61343 4.89419 4.58277 4.96628 4.58277 5.05291ZM10.4783 8.95581L2.5513 11.2145L3.79105 15.5458C4.13005 15.3208 4.44055 15.0677 4.72255 14.7864C5.00455 14.5052 5.28759 14.2116 5.57165 13.9058C5.7764 13.6765 6.02802 13.5665 6.32652 13.5759C6.62521 13.5853 6.87046 13.7068 7.06227 13.9404C7.5224 14.4755 8.02968 15.0066 8.58412 15.5337C9.13874 16.0609 9.79012 16.3246 10.5382 16.3246C11.2672 16.3246 11.9003 16.0581 12.4375 15.5253C12.9747 14.9922 13.4734 14.4639 13.9335 13.9404C14.1225 13.7049 14.3673 13.5829 14.6678 13.5745C14.9686 13.5661 15.2207 13.6765 15.4241 13.9058C15.7082 14.2116 15.9912 14.5052 16.2732 14.7864C16.5552 15.0677 16.8657 15.3208 17.2047 15.5458L18.4442 11.2145L10.4783 8.95581Z" fill="white"/>
</svg>
