<svg width="119" height="47" viewBox="0 0 119 47" fill="none" xmlns="http://www.w3.org/2000/svg">
<g clip-path="url(#clip0_35_1146)">
<path d="M24.4991 30.2441C22.3327 30.2471 20.5493 31.9836 20.5493 34.1564C20.5493 36.3292 22.3327 38.0482 24.4991 38.054C26.6855 38.0453 28.4546 36.3088 28.4546 34.1564C28.4546 32.0041 26.6855 30.2471 24.4991 30.2441ZM24.4448 36.2707C23.313 36.2707 22.4556 35.3219 22.4556 34.1593C22.4556 32.9968 23.3702 32.0275 24.4963 32.0275C25.6223 32.0275 26.5055 32.9734 26.5055 34.1593C26.5055 35.3453 25.5795 36.2707 24.442 36.2707H24.4448Z" fill="white"/>
<path d="M6.36777 27.5505C6.97368 28.1625 7.66532 28.6955 8.34268 29.041L8.41413 29.0791L9.5802 27.6647L9.46874 27.6003C8.35982 26.9853 7.49098 26.2093 6.92509 25.2283C6.36206 24.2649 6.0734 23.1404 6.0734 21.8022V20.543H3.98703V21.6675C3.98703 23.1199 3.66407 24.262 3.06388 25.2635C2.38939 26.3704 1.39193 27.2635 0.114393 28.0893L0.00292969 28.1596L1.2719 29.5037L1.34049 29.4627C2.09215 29.041 2.8924 28.3939 3.58976 27.6735C4.19281 27.0439 4.71583 26.3645 5.03021 25.7232C5.33602 26.3499 5.8076 26.9912 6.37063 27.5417L6.36777 27.5505Z" fill="white"/>
<path d="M4.11267 37.132H12.8525V31.0146H4.11267V37.132ZM6.07328 32.7424H10.8834V35.4072H6.07328V32.7424Z" fill="white"/>
<path d="M12.884 20.1826H10.9434V30.3147H12.884V25.8314H15.1618V24.0305H12.884V20.1826Z" fill="white"/>
<path d="M62.4481 28.068C63.0854 28.6361 63.8171 29.1134 64.503 29.4209L64.5745 29.4561L65.6234 28.0007L65.5119 27.945C64.5116 27.4179 63.617 26.7678 62.9768 25.9772C62.3224 25.166 61.9337 24.1909 61.9337 23.0137V22.6681H64.8231V20.9229H56.9721V22.6681H59.8616V23.0869C59.8616 24.1557 59.5129 25.1543 58.9413 26.0182C58.2668 27.0548 57.2808 27.8923 56.3262 28.4311L56.2004 28.5014L57.4894 29.869L57.5609 29.8338C58.2582 29.4297 59.0242 28.8177 59.6815 28.1324C60.2074 27.5673 60.679 26.9699 60.9676 26.3754C61.3163 26.9523 61.8508 27.5321 62.4481 28.071V28.068Z" fill="white"/>
<path d="M76.5039 32.7834H83.569V37.132H85.5324V31.0527H76.5039V32.7834Z" fill="white"/>
<path d="M81.3797 25.8165C81.3797 24.859 80.9624 23.9775 80.3393 23.304H82.28V21.5792H78.5759V19.6787H76.4724V21.5792H72.6798V23.304H74.6604C74.0574 23.9775 73.6344 24.8502 73.6344 25.8165C73.6344 27.9513 75.3521 29.6878 77.5013 29.6937C79.6506 29.6878 81.3797 27.9513 81.3825 25.8165H81.3797ZM75.5064 25.7375C75.5064 24.5544 76.481 23.5529 77.4985 23.5529C78.5159 23.5529 79.4876 24.5603 79.4905 25.7375C79.4905 26.9 78.5159 27.9044 77.4985 27.9074C76.4781 27.9044 75.5064 26.9 75.5064 25.7375Z" fill="white"/>
<path d="M85.5324 20.1826H83.5918V30.3498H85.5324V26.4698H87.8131V24.6718H85.5324V20.1826Z" fill="white"/>
<path d="M69.0702 20.1826H67.1267V30.3498H69.0702V25.8314H71.348V24.0305H69.0702V20.1826Z" fill="white"/>
<path d="M113.235 27.8484H106.668V22.7238H111.672V20.9199H104.701V29.5995H113.235V27.8484Z" fill="white"/>
<path d="M26.8741 23.1988H23.8188V24.9822H26.8741V30.669H28.8176V20.1826H26.8741V23.1988Z" fill="white"/>
<path d="M21.9354 27.8141C22.5413 28.4261 23.2472 28.959 23.9274 29.3192L24.0018 29.3632L25.1707 27.9488L25.0564 27.8814C23.9474 27.2899 23.0958 26.5139 22.527 25.5475C21.9468 24.5899 21.6582 23.4245 21.6582 22.0833V20.5459H19.5661V21.9574C19.5661 23.4098 19.2488 24.549 18.6601 25.5329C17.9856 26.6603 16.9738 27.5564 15.6934 28.3792L15.5848 28.4495L16.8567 29.7995L16.9195 29.7585C17.6741 29.3368 18.4543 28.7248 19.1488 28.0249C19.7747 27.3836 20.3006 26.6896 20.615 26.0161C20.9151 26.6251 21.3752 27.2518 21.9297 27.8141H21.9354Z" fill="white"/>
<path d="M64.9003 30.2441C62.7339 30.2471 60.9505 31.9836 60.9476 34.1564C60.9505 36.3088 62.7339 38.0482 64.9003 38.054C67.0838 38.0453 68.8558 36.3088 68.8558 34.1564C68.8558 32.0041 67.0838 30.2471 64.9003 30.2441ZM64.8431 36.2707C63.7142 36.2707 62.8539 35.3219 62.8539 34.1593C62.8539 32.9968 63.7657 32.0275 64.9003 32.0275C66.0349 32.0275 66.9066 32.9734 66.9095 34.1593C66.9066 35.3219 65.9806 36.2707 64.8431 36.2707Z" fill="white"/>
<path d="M109.523 31.7314H107.556V37.1313H116.748V35.3509H109.523V31.7314Z" fill="white"/>
<path d="M116.702 24.8797V20.1826H114.761V32.6837H116.702V26.6748H119V24.8797H116.702Z" fill="white"/>
<path d="M100.263 24.7626H98.6279V20.4696H96.7931V36.6956H98.6279V26.7158H100.263V37.1319H102.169V20.1826H100.263V24.7626Z" fill="white"/>
<path d="M94.0951 27.011C93.6578 26.03 93.4777 24.9377 93.4777 23.5907V22.9494H95.6813V21.1221H89.2735V22.9494H91.5485V23.6229C91.5485 24.8967 91.3856 25.9363 90.9912 26.9026C90.5368 28.0095 89.7708 29.011 88.5505 30.077L88.4647 30.159L89.6708 31.383L89.7451 31.3244C90.351 30.8647 90.9855 30.2 91.5171 29.5147C91.963 28.9349 92.3402 28.3375 92.5803 27.8104C92.8232 28.3229 93.2033 28.9115 93.6463 29.462C94.1636 30.1062 94.7438 30.7183 95.3011 31.0814L95.3783 31.1341L96.3929 29.8895L96.3129 29.8134C95.2211 28.8383 94.5438 27.9686 94.0979 27.0081L94.0951 27.011Z" fill="white"/>
<path d="M5.52173 42.9795C4.59001 42.6398 4.41567 42.4114 4.41567 42.019C4.41567 41.6266 4.68433 41.3162 5.32167 41.3162C5.78753 41.3162 6.10191 41.4714 6.43916 41.7584L6.77069 41.3396C6.37914 41.0204 5.97902 40.8301 5.35596 40.8301C4.48426 40.8301 3.89551 41.284 3.89551 42.0512C3.89551 42.7394 4.23847 43.0703 5.24164 43.4422C6.09334 43.7555 6.35342 44.0103 6.35342 44.4495C6.35342 44.9561 5.96758 45.2665 5.34739 45.2665C4.86724 45.2665 4.4614 45.041 4.10986 44.6955L3.76404 45.0908C4.12987 45.4686 4.69862 45.7497 5.33024 45.7497C6.30197 45.7497 6.87358 45.1699 6.87358 44.4232C6.87358 43.6764 6.55634 43.3572 5.52459 42.9736L5.52173 42.9795Z" fill="white"/>
<path d="M8.98569 42.0273C8.53126 42.0273 8.11685 42.1415 7.81104 42.3114L7.99967 42.7272C8.28547 42.5574 8.58556 42.452 8.95139 42.452C9.46012 42.452 9.71163 42.7096 9.71163 43.2455V43.6701C9.50585 43.553 9.19147 43.4622 8.83707 43.4622C8.14543 43.4622 7.49951 43.8048 7.49951 44.6101C7.49951 45.474 8.07398 45.7522 8.617 45.7522C9.11716 45.7522 9.46012 45.515 9.70877 45.2427V45.679H10.2061V43.184C10.2061 42.3524 9.7345 42.0273 8.98569 42.0273ZM9.70877 44.8005C9.49728 45.0992 9.15431 45.3393 8.70274 45.3393C8.2769 45.3393 7.98824 45.105 7.98824 44.5721C7.98824 44.124 8.2969 43.8663 8.80849 43.8663C9.23434 43.8663 9.48013 43.9454 9.70591 44.0743V44.7976L9.70877 44.8005Z" fill="white"/>
<path d="M15.2219 43.5852V45.679H15.7221V43.4974C15.7221 42.452 15.2791 42.0273 14.5646 42.0273C13.9987 42.0273 13.7129 42.2968 13.5071 42.6394C13.3413 42.2968 13.0412 42.0273 12.5496 42.0273C12.1352 42.0273 11.8409 42.2294 11.6637 42.5398V42.1035H11.1606V45.6819H11.6637V43.5882C11.6637 42.7946 11.9638 42.4695 12.4439 42.4695C12.9241 42.4695 13.1956 42.7682 13.1956 43.5882V45.6819H13.6957V43.5882C13.6957 42.7946 13.9987 42.4695 14.4731 42.4695C14.979 42.4695 15.2248 42.7682 15.2248 43.5882L15.2219 43.5852Z" fill="white"/>
<path d="M17.7226 43.6028C17.131 43.3275 16.9538 43.2075 16.9538 42.9058C16.9538 42.6482 17.1653 42.4607 17.534 42.4607C17.9027 42.4607 18.1313 42.5632 18.4029 42.7829L18.6829 42.4051C18.4171 42.1796 18.0456 42.0273 17.5626 42.0273C16.931 42.0273 16.4737 42.3934 16.4737 42.9381C16.4737 43.512 16.7652 43.7287 17.4654 44.0362C18.0828 44.3085 18.2914 44.4725 18.2914 44.7653C18.2914 45.1138 18.0656 45.3188 17.5855 45.3188C17.2396 45.3188 16.9138 45.1724 16.6337 44.9235L16.3394 45.2983C16.6737 45.5736 17.091 45.7551 17.5712 45.7551C18.1771 45.7551 18.7687 45.4506 18.7687 44.7478C18.7687 44.1065 18.3829 43.9103 17.7226 43.6057V43.6028Z" fill="white"/>
<path d="M21.6868 44.1914C21.6868 44.9762 21.3038 45.3071 20.8237 45.3071C20.2607 45.3071 19.9949 44.9616 19.9949 44.1914V42.1006H19.4976V44.2793C19.4976 45.3071 19.9806 45.7493 20.7179 45.7493C21.1609 45.7493 21.4839 45.5385 21.684 45.2398V45.6761H22.1841V42.0977H21.684V44.1885L21.6868 44.1914Z" fill="white"/>
<path d="M25.7137 45.679V43.4974C25.7137 42.4666 25.2278 42.0273 24.4876 42.0273C24.0503 42.0273 23.7245 42.2353 23.5273 42.5398V42.1035H23.0243V45.6819H23.5273V43.5882C23.5273 42.8063 23.9017 42.4695 24.3904 42.4695C24.9477 42.4695 25.2164 42.818 25.2164 43.5882V45.6819H25.7166L25.7137 45.679Z" fill="white"/>
<path d="M27.2856 46.6073L27.4457 46.9968C28.7432 46.9528 29.2148 46.4374 29.2148 45.3598V42.1006H28.7175V42.5017C28.4717 42.2148 28.1745 42.0273 27.7344 42.0273C26.9998 42.0273 26.4139 42.6774 26.4139 43.9483C26.4139 45.2192 26.9684 45.7522 27.6686 45.7522C28.1402 45.7522 28.4746 45.515 28.7204 45.2427V45.4272C28.7204 46.2588 28.4546 46.5721 27.2885 46.6073H27.2856ZM27.7915 45.31C27.2399 45.31 26.9055 44.8415 26.9055 43.9425C26.9055 42.9791 27.1913 42.4695 27.7715 42.4695C28.1859 42.4695 28.5232 42.7096 28.7147 43.0054V44.7946C28.4689 45.1109 28.1631 45.31 27.7887 45.31H27.7915Z" fill="white"/>
<path d="M34.7223 43.2606C34.7223 41.6237 33.822 40.9062 32.5988 40.9062H31.3669V45.6795H32.5044C33.7505 45.6795 34.7223 44.9913 34.7223 43.2577V43.2606ZM31.8871 41.3894H32.5587C33.6305 41.3894 34.2021 42.06 34.2021 43.2782C34.2021 44.6516 33.5762 45.1963 32.5702 45.1963H31.8842V41.3894H31.8871Z" fill="white"/>
<path d="M36.0541 42.5457V42.1035H35.554V45.6819H36.0541V43.5823C36.0541 42.8971 36.3256 42.5017 36.8143 42.5017C37.0458 42.5017 37.2002 42.5545 37.3374 42.6364L37.4631 42.1211C37.3459 42.0654 37.1773 42.0332 36.9201 42.0332C36.5457 42.0332 36.2113 42.2616 36.057 42.5515L36.0541 42.5457Z" fill="white"/>
<path d="M40.4498 45.3393L40.2183 44.9703C39.8982 45.19 39.6581 45.31 39.2494 45.31C38.6807 45.31 38.3263 44.8268 38.2777 44.0655H40.607C40.6241 43.9805 40.6299 43.9073 40.6299 43.7844C40.6299 42.7624 40.1354 42.0273 39.2237 42.0273C38.392 42.0273 37.7804 42.7331 37.7804 43.8693C37.7804 45.2778 38.5578 45.7522 39.198 45.7522C39.7239 45.7522 40.0325 45.6087 40.4527 45.3393H40.4498ZM39.218 42.4666C39.8296 42.4666 40.124 42.9498 40.164 43.6467H38.2777C38.3349 42.8473 38.6978 42.4666 39.218 42.4666Z" fill="white"/>
<path d="M42.2903 45.7522C42.7905 45.7522 43.1363 45.515 43.3821 45.2427V45.679H43.8823V43.184C43.8823 42.3524 43.4107 42.0273 42.6562 42.0273C42.2017 42.0273 41.7902 42.1415 41.4844 42.3114L41.673 42.7272C41.9588 42.5574 42.2589 42.452 42.6247 42.452C43.1363 42.452 43.3821 42.7096 43.3821 43.2455V43.6701C43.1792 43.553 42.8648 43.4622 42.5161 43.4622C41.8216 43.4622 41.1729 43.8048 41.1729 44.6101C41.1729 45.474 41.7473 45.7522 42.2903 45.7522ZM42.4847 43.8693C42.9077 43.8693 43.1563 43.9483 43.3821 44.0772V44.8005C43.1706 45.0992 42.8305 45.3393 42.3818 45.3393C41.9331 45.3393 41.6673 45.105 41.6673 44.5721C41.6673 44.124 41.976 43.8663 42.4875 43.8663L42.4847 43.8693Z" fill="white"/>
<path d="M48.8953 43.5852V45.679H49.3926V43.4974C49.3926 42.452 48.9496 42.0273 48.2351 42.0273C47.6692 42.0273 47.3834 42.2968 47.1776 42.6394C47.0119 42.2968 46.7146 42.0273 46.2202 42.0273C45.8058 42.0273 45.5143 42.2294 45.3342 42.5398V42.1035H44.8369V45.6819H45.3342V43.5882C45.3342 42.7946 45.6343 42.4695 46.1145 42.4695C46.5946 42.4695 46.8661 42.7682 46.8661 43.5882V45.6819H47.3634V43.5882C47.3634 42.7946 47.6692 42.4695 48.1437 42.4695C48.6467 42.4695 48.8953 42.7682 48.8953 43.5882V43.5852Z" fill="white"/>
<path d="M53.1281 42.9795C52.1963 42.6398 52.0248 42.4143 52.0248 42.019C52.0248 41.6237 52.2906 41.3162 52.928 41.3162C53.3967 41.3162 53.7082 41.4714 54.0455 41.7584L54.377 41.3425C53.9855 41.0233 53.5853 40.833 52.9623 40.833C52.0906 40.833 51.5047 41.284 51.5047 42.0512C51.5047 42.7394 51.8419 43.0732 52.8508 43.4392C53.7025 43.7555 53.9626 44.0073 53.9626 44.4495C53.9626 44.9532 53.5768 45.2665 52.9566 45.2665C52.4764 45.2665 52.0706 45.0381 51.7162 44.6926L51.3704 45.085C51.7362 45.4686 52.3049 45.7468 52.9337 45.7468C53.9026 45.7468 54.477 45.167 54.477 44.4202C54.477 43.6735 54.1598 43.3543 53.1281 42.9707V42.9795Z" fill="white"/>
<path d="M56.5976 42.4695C56.9492 42.4695 57.1835 42.5984 57.435 42.8326L57.7351 42.449C57.4607 42.203 57.1006 42.0273 56.6291 42.0273C55.8974 42.0273 55.1257 42.5837 55.1257 43.9103C55.1257 45.1577 55.8259 45.7551 56.5976 45.7551C57.0863 45.7551 57.4265 45.5648 57.7208 45.2573L57.4207 44.9323C57.1835 45.1695 56.9549 45.313 56.6176 45.313C55.9974 45.313 55.6316 44.7478 55.6316 43.8663C55.6316 42.9849 56.0546 42.4695 56.6005 42.4695H56.5976Z" fill="white"/>
<path d="M59.873 42.0278C59.4357 42.0278 59.107 42.2357 58.907 42.5402V40.8564H58.4097V45.6824H58.907V43.5886C58.907 42.8038 59.2899 42.47 59.773 42.47C60.3331 42.47 60.5961 42.8155 60.5961 43.5886V45.6824H61.0962V43.4978C61.0962 42.47 60.6104 42.0278 59.8701 42.0278H59.873Z" fill="white"/>
<path d="M63.3254 42.0273C62.4766 42.0273 61.7964 42.6774 61.7964 43.8956C61.7964 45.1138 62.448 45.7551 63.2997 45.7551C64.1514 45.7551 64.8316 45.0816 64.8316 43.8663C64.8316 42.6511 64.1743 42.0273 63.3254 42.0273ZM63.3169 45.313C62.711 45.313 62.3023 44.8239 62.3023 43.881C62.3023 42.9381 62.711 42.4695 63.3169 42.4695C63.9228 42.4695 64.3315 42.941 64.3315 43.881C64.3315 44.821 63.9199 45.313 63.3169 45.313Z" fill="white"/>
<path d="M66.0863 40.8564H65.5862V45.6824H66.0863V40.8564Z" fill="white"/>
<path d="M68.3671 42.0273C67.9155 42.0273 67.5011 42.1445 67.1982 42.3143L67.3839 42.7331C67.6697 42.5603 67.9698 42.4578 68.3357 42.4578C68.8473 42.4578 69.093 42.7184 69.093 43.2455V43.6731C68.8873 43.553 68.5729 43.4652 68.2242 43.4652C67.5297 43.4652 66.8838 43.8078 66.8838 44.6131C66.8838 45.4799 67.4554 45.7551 68.0013 45.7551C68.5014 45.7551 68.8473 45.5209 69.093 45.2456V45.6819H69.5932V43.187C69.5932 42.3524 69.1216 42.0273 68.3671 42.0273ZM69.093 44.8005C68.8816 45.0992 68.5386 45.3393 68.0899 45.3393C67.6669 45.3393 67.3782 45.105 67.3782 44.575C67.3782 44.124 67.6869 43.8722 68.1985 43.8722C68.6243 43.8722 68.8701 43.9483 69.0959 44.0772V44.8005H69.093Z" fill="white"/>
<path d="M71.0451 42.5457V42.1006H70.5449V45.6819H71.0451V43.5823C71.0451 42.9 71.3166 42.4988 71.8025 42.4988C72.0368 42.4988 72.1883 42.5515 72.3283 42.6335L72.4541 42.1152C72.3369 42.0625 72.1683 42.0273 71.9111 42.0273C71.5367 42.0273 71.2023 42.2558 71.0451 42.5457Z" fill="white"/>
<path d="M74.3718 43.6028C73.7774 43.3275 73.6002 43.2045 73.6002 42.9029C73.6002 42.6452 73.8145 42.4578 74.1803 42.4578C74.5462 42.4578 74.7805 42.5632 75.0521 42.7799L75.3321 42.4051C75.0635 42.1796 74.6948 42.0244 74.2146 42.0244C73.5802 42.0244 73.1229 42.3905 73.1229 42.9381C73.1229 43.512 73.4172 43.7287 74.1175 44.0333C74.7348 44.3056 74.9434 44.4696 74.9434 44.7624C74.9434 45.1138 74.7148 45.3159 74.2404 45.3159C73.8917 45.3159 73.5659 45.1695 73.2858 44.9206L72.9943 45.2954C73.3258 45.5706 73.7459 45.7522 74.2261 45.7522C74.8291 45.7522 75.4236 45.4477 75.4236 44.7449C75.4236 44.1006 75.0378 43.9073 74.3776 43.5999L74.3718 43.6028Z" fill="white"/>
<path d="M77.6957 42.0278C77.2556 42.0278 76.9298 42.2357 76.7297 42.5402V40.8564H76.2324V45.6824H76.7297V43.5886C76.7297 42.8038 77.1098 42.47 77.5957 42.47C78.153 42.47 78.4188 42.8155 78.4188 43.5886V45.6824H78.919V43.4978C78.919 42.47 78.4331 42.0278 77.6957 42.0278Z" fill="white"/>
<path d="M80.4022 42.1006H79.9049V45.682H80.4022V42.1006Z" fill="white"/>
<path d="M80.165 40.7305C79.9592 40.7305 79.7992 40.8945 79.7992 41.1024C79.7992 41.2986 79.9592 41.4626 80.165 41.4626C80.3479 41.4626 80.5109 41.2986 80.5109 41.1024C80.5109 40.8945 80.3479 40.7305 80.165 40.7305Z" fill="white"/>
<path d="M82.9602 42.0273C82.4886 42.0273 82.1542 42.2645 81.9084 42.5398V42.1035H81.4111V46.9997H81.9084V45.2807C82.1542 45.5648 82.4543 45.7551 82.8945 45.7551C83.6261 45.7551 84.212 45.0992 84.212 43.8341C84.212 42.5691 83.6575 42.0273 82.9602 42.0273ZM82.8544 45.313C82.4429 45.313 82.1028 45.0728 81.9084 44.7741V42.9878C82.1542 42.6774 82.4629 42.4695 82.8344 42.4695C83.3889 42.4695 83.7233 42.941 83.7233 43.84C83.7233 44.8005 83.4375 45.313 82.8544 45.313Z" fill="white"/>
<path d="M86.8556 41.3924H89.0735V40.9092H86.3354V45.6824H86.8556V43.4568H88.1332V42.9766H86.8556V41.3924Z" fill="white"/>
<path d="M90.5911 42.0273C89.7423 42.0273 89.0592 42.6774 89.0592 43.8956C89.0592 45.1138 89.7137 45.7551 90.5625 45.7551C91.4114 45.7551 92.0944 45.0816 92.0944 43.8663C92.0944 42.6511 91.4428 42.0273 90.5911 42.0273ZM90.5768 45.313C89.9709 45.313 89.5651 44.8239 89.5651 43.881C89.5651 42.9381 89.9709 42.4695 90.5768 42.4695C91.1827 42.4695 91.5971 42.941 91.5971 43.881C91.5971 44.821 91.1856 45.313 90.5768 45.313Z" fill="white"/>
<path d="M94.8525 44.1914C94.8525 44.9762 94.4752 45.3101 93.9893 45.3101C93.4292 45.3101 93.1634 44.9645 93.1634 44.1914V42.1006H92.6632V44.2822C92.6632 45.313 93.1491 45.7552 93.8893 45.7552C94.3237 45.7552 94.6495 45.5472 94.8496 45.2456V45.682H95.3498V42.1006H94.8496V44.1914H94.8525Z" fill="white"/>
<path d="M97.6533 42.0273C97.216 42.0273 96.8902 42.2353 96.6873 42.5398V42.1035H96.1871V45.6848H96.6873V43.5911C96.6873 42.8063 97.0674 42.4724 97.5533 42.4724C98.1134 42.4724 98.3793 42.818 98.3793 43.5911V45.6848H98.8765V43.5003C98.8765 42.4725 98.3907 42.0303 97.6505 42.0303L97.6533 42.0273Z" fill="white"/>
<path d="M101.883 42.5051C101.637 42.2181 101.337 42.0278 100.897 42.0278C100.166 42.0278 99.5797 42.6779 99.5797 43.9517C99.5797 45.2255 100.131 45.7556 100.832 45.7556C101.303 45.7556 101.635 45.5213 101.883 45.246V45.6824H102.383V40.8564H101.883V42.508V42.5051ZM101.883 44.7951C101.637 45.1084 101.329 45.3134 100.957 45.3134C100.406 45.3134 100.071 44.8449 100.071 43.9429C100.071 42.9795 100.357 42.47 100.937 42.47C101.352 42.47 101.686 42.7072 101.883 43.0088V44.7951Z" fill="white"/>
<path d="M104.501 42.0273C104.047 42.0273 103.635 42.1445 103.329 42.3143L103.515 42.7331C103.804 42.5603 104.104 42.4578 104.467 42.4578C104.978 42.4578 105.224 42.7184 105.224 43.2455V43.6731C105.019 43.553 104.704 43.4652 104.353 43.4652C103.664 43.4652 103.015 43.8078 103.015 44.6131C103.015 45.4799 103.589 45.7551 104.135 45.7551C104.636 45.7551 104.978 45.5209 105.224 45.2456V45.6819H105.724V43.187C105.724 42.3524 105.253 42.0273 104.501 42.0273ZM105.224 44.8005C105.013 45.0992 104.673 45.3393 104.218 45.3393C103.795 45.3393 103.509 45.105 103.509 44.575C103.509 44.124 103.815 43.8722 104.327 43.8722C104.753 43.8722 104.998 43.9483 105.224 44.0772V44.8005Z" fill="white"/>
<path d="M107.316 40.8564H106.816V42.1039H106.385V42.5344H106.816V44.9503C106.816 45.5418 107.051 45.7585 107.485 45.7585C107.748 45.7585 107.934 45.7204 108.128 45.6355L108.162 45.1933C108.002 45.2607 107.871 45.2958 107.668 45.2958C107.402 45.2958 107.316 45.1875 107.316 44.8654V42.5344H108.182V42.1039H107.316V40.8564Z" fill="white"/>
<path d="M109.314 40.7305C109.108 40.7305 108.945 40.8945 108.945 41.1024C108.945 41.2986 109.108 41.4626 109.314 41.4626C109.503 41.4626 109.663 41.2986 109.663 41.1024C109.663 40.8945 109.503 40.7305 109.314 40.7305Z" fill="white"/>
<path d="M109.551 42.1006H109.054V45.682H109.551V42.1006Z" fill="white"/>
<path d="M111.838 42.0273C110.989 42.0273 110.309 42.6774 110.309 43.8956C110.309 45.1138 110.96 45.7551 111.812 45.7551C112.664 45.7551 113.341 45.0816 113.341 43.8663C113.341 42.6511 112.689 42.0273 111.838 42.0273ZM111.821 45.313C111.218 45.313 110.812 44.8239 110.812 43.881C110.812 42.9381 111.218 42.4695 111.821 42.4695C112.424 42.4695 112.841 42.941 112.841 43.881C112.841 44.821 112.429 45.313 111.821 45.313Z" fill="white"/>
<path d="M115.525 42.0273C115.085 42.0273 114.759 42.2353 114.559 42.5398V42.1035H114.058V45.6848H114.559V43.5911C114.559 42.8063 114.939 42.4724 115.425 42.4724C115.988 42.4724 116.251 42.818 116.251 43.5911V45.6848H116.748V43.5003C116.748 42.4725 116.262 42.0303 115.525 42.0303V42.0273Z" fill="white"/>
<path d="M63.9543 7.94461L60.116 6.31645L63.9543 4.68829L63.2712 3.00156L59.4329 4.62972L61.0248 0.696947L59.3786 0L57.7895 3.93277L56.1976 0L54.5542 0.696947L56.1433 4.62972L52.305 3.00156L51.6248 4.68829L55.4602 6.31645L51.6248 7.94461L52.305 9.63134L56.1433 8.00025L54.5542 11.933L56.2005 12.6329L57.7895 8.70012L59.3786 12.6329L61.0248 11.933L59.4329 8.00025L63.2712 9.63134L63.9543 7.94461Z" fill="white"/>
<path d="M39.1093 18.9226H41.6644V11.9326H32.9331V14.287H39.1093V18.9226Z" fill="white"/>
<path d="M49.0725 18.9226H51.6247V11.9326H42.8934V14.287H49.0725V18.9226Z" fill="white"/>
<path d="M32.5216 22.536H49.0725V26.135H51.6247V20.1816H32.5216V22.536Z" fill="white"/>
<path d="M38.6978 37.1313H51.6218V27.3477H38.6978V37.1313ZM41.2528 29.702H49.0724V34.7769H41.2528V29.702Z" fill="white"/>
</g>
<defs>
<clipPath id="clip0_35_1146">
<rect width="119" height="47" fill="white"/>
</clipPath>
</defs>
</svg>
