<svg width="300" height="106" viewBox="0 0 300 106" fill="none" xmlns="http://www.w3.org/2000/svg">
<g clip-path="url(#clip0_61_69)">
<path d="M61.7627 68.209C56.3012 68.2156 51.8052 72.132 51.8052 77.0324C51.8052 81.9328 56.3012 85.8096 61.7627 85.8228C67.2746 85.803 71.7346 81.8866 71.7346 77.0324C71.7346 72.1782 67.2746 68.2156 61.7627 68.209ZM61.6258 81.8008C58.7725 81.8008 56.611 79.6609 56.611 77.039C56.611 74.4171 58.9166 72.231 61.7555 72.231C64.5943 72.231 66.8207 74.3643 66.8207 77.039C66.8207 79.7138 64.4862 81.8008 61.6186 81.8008H61.6258Z" fill="#004289"/>
<path d="M16.0531 62.1333C17.5806 63.5137 19.3243 64.7156 21.0319 65.495L21.212 65.5808L24.1517 62.3909L23.8707 62.2456C21.0751 60.8587 18.8848 59.1085 17.4581 56.8961C16.0387 54.7232 15.311 52.1872 15.311 49.169V46.3291H10.0513V48.8652C10.0513 52.1409 9.2371 54.7166 7.72402 56.9753C6.02361 59.4718 3.50902 61.4861 0.288324 63.3485L0.00732422 63.507L3.2064 66.5384L3.37932 66.446C5.27427 65.495 7.29171 64.0354 9.04976 62.4107C10.57 60.9908 11.8886 59.4586 12.6811 58.0122C13.4521 59.4255 14.6409 60.8719 16.0604 62.1135L16.0531 62.1333Z" fill="#004289"/>
<path d="M10.3682 83.7428H32.4015V69.9463H10.3682V83.7428ZM15.3109 73.8429H27.4371V79.8528H15.3109V73.8429Z" fill="#004289"/>
<path d="M32.4807 45.5166H27.5884V68.3677H32.4807V58.2564H38.2231V54.1947H32.4807V45.5166Z" fill="#004289"/>
<path d="M157.432 63.3021C159.039 64.5834 160.883 65.6599 162.613 66.3534L162.793 66.4326L165.437 63.1502L165.156 63.0248C162.634 61.836 160.379 60.3698 158.765 58.5866C157.115 56.7572 156.135 54.558 156.135 51.903V51.1237H163.42V47.1875H143.627V51.1237H150.911V52.0681C150.911 54.4787 150.032 56.7308 148.591 58.6791C146.891 61.017 144.405 62.9059 141.999 64.1211L141.682 64.2796L144.931 67.3638L145.111 67.2846C146.869 66.3732 148.8 64.9929 150.457 63.4474C151.783 62.1728 152.972 60.8255 153.7 59.4848C154.579 60.7859 155.926 62.0935 157.432 63.3087V63.3021Z" fill="#004289"/>
<path d="M192.867 73.9354H210.678V83.7429H215.628V70.0322H192.867V73.9354Z" fill="#004289"/>
<path d="M205.159 58.2236C205.159 56.064 204.107 54.0761 202.536 52.5571H207.429V48.6671H198.091V44.3809H192.788V48.6671H183.227V52.5571H188.22C186.699 54.0761 185.633 56.0442 185.633 58.2236C185.633 63.0382 189.963 66.9546 195.382 66.9678C200.8 66.9546 205.159 63.0382 205.166 58.2236H205.159ZM190.352 58.0453C190.352 55.3771 192.809 53.1184 195.374 53.1184C197.939 53.1184 200.389 55.3903 200.396 58.0453C200.396 60.6672 197.939 62.9325 195.374 62.9391C192.802 62.9325 190.352 60.6672 190.352 58.0453Z" fill="#004289"/>
<path d="M215.628 45.5166H210.736V68.4469H215.628V59.6962H221.378V55.6411H215.628V45.5166Z" fill="#004289"/>
<path d="M174.127 45.5166H169.227V68.4469H174.127V58.2564H179.869V54.1947H174.127V45.5166Z" fill="#004289"/>
<path d="M285.467 62.8066H268.91V51.2489H281.526V47.1807H263.953V66.756H285.467V62.8066Z" fill="#004289"/>
<path d="M67.7501 52.3191H60.0479V56.3411H67.7501V69.1668H72.6496V45.5166H67.7501V52.3191Z" fill="#004289"/>
<path d="M55.2994 62.728C56.8268 64.1083 58.6065 65.3103 60.3213 66.1226L60.5087 66.2217L63.4556 63.0318L63.1674 62.8799C60.3718 61.5458 58.2246 59.7956 56.7908 57.6162C55.3282 55.4566 54.6005 52.828 54.6005 49.8032V46.3359H49.3263V49.5192C49.3263 52.795 48.5265 55.3641 47.0423 57.5832C45.3419 60.1258 42.7912 62.1468 39.5633 64.0026L39.2896 64.1611L42.4958 67.2057L42.6543 67.1133C44.5565 66.1622 46.5235 64.7819 48.2743 63.2035C49.8523 61.7571 51.178 60.1919 51.9706 58.6729C52.7271 60.0466 53.8871 61.4599 55.2849 62.728H55.2994Z" fill="#004289"/>
<path d="M163.614 68.209C158.153 68.2156 153.657 72.132 153.649 77.0324C153.657 81.8866 158.153 85.8096 163.614 85.8228C169.119 85.803 173.586 81.8866 173.586 77.0324C173.586 72.1782 169.119 68.2156 163.614 68.209ZM163.47 81.8008C160.624 81.8008 158.455 79.6609 158.455 77.039C158.455 74.4171 160.754 72.231 163.614 72.231C166.475 72.231 168.672 74.3643 168.679 77.039C168.672 79.6609 166.338 81.8008 163.47 81.8008Z" fill="#004289"/>
<path d="M276.108 71.5645H271.151V83.7429H294.323V79.7274H276.108V71.5645Z" fill="#004289"/>
<path d="M294.207 56.11V45.5166H289.315V73.7106H294.207V60.1585H300V56.11H294.207Z" fill="#004289"/>
<path d="M252.763 55.8458H248.642V46.1638H244.016V82.7586H248.642V60.2509H252.763V83.7426H257.569V45.5166H252.763V55.8458Z" fill="#004289"/>
<path d="M237.215 60.9181C236.112 58.7056 235.658 56.2422 235.658 53.2042V51.7578H241.213V47.6367H225.06V51.7578H230.795V53.2768C230.795 56.1497 230.384 58.4943 229.39 60.6737C228.244 63.1702 226.313 65.4289 223.237 67.8329L223.021 68.0178L226.061 70.7784L226.248 70.6463C227.776 69.6094 229.375 68.1102 230.716 66.5648C231.84 65.2572 232.791 63.9099 233.396 62.7211C234.008 63.8768 234.967 65.2043 236.083 66.4459C237.388 67.8989 238.85 69.2792 240.255 70.0982L240.45 70.217L243.008 67.4102L242.806 67.2385C240.053 65.0392 238.346 63.0777 237.222 60.9115L237.215 60.9181Z" fill="#004289"/>
<path d="M13.9204 96.9326C11.5715 96.1665 11.132 95.6513 11.132 94.7663C11.132 93.8814 11.8093 93.1813 13.4161 93.1813C14.5905 93.1813 15.3831 93.5313 16.2333 94.1786L17.0691 93.2341C16.082 92.5142 15.0732 92.085 13.5025 92.085C11.305 92.085 9.82069 93.1086 9.82069 94.839C9.82069 96.391 10.6853 97.1373 13.2143 97.9761C15.3614 98.6827 16.0171 99.2573 16.0171 100.248C16.0171 101.391 15.0444 102.091 13.4809 102.091C12.2704 102.091 11.2473 101.582 10.3611 100.803L9.48926 101.694C10.4115 102.546 11.8453 103.18 13.4377 103.18C15.8874 103.18 17.3284 101.873 17.3284 100.189C17.3284 98.5044 16.5287 97.7845 13.9276 96.9194L13.9204 96.9326Z" fill="#004289"/>
<path d="M22.6529 94.7861C21.5073 94.7861 20.4626 95.0437 19.6916 95.4268L20.1671 96.3646C20.8877 95.9815 21.6442 95.7438 22.5665 95.7438C23.849 95.7438 24.483 96.3249 24.483 97.5335V98.4912C23.9643 98.227 23.1717 98.0223 22.2783 98.0223C20.5346 98.0223 18.9062 98.795 18.9062 100.611C18.9062 102.559 20.3545 103.187 21.7235 103.187C22.9844 103.187 23.849 102.652 24.4758 102.038V103.022H25.7295V97.3949C25.7295 95.5192 24.5407 94.7861 22.6529 94.7861ZM24.4758 101.04C23.9426 101.714 23.078 102.256 21.9396 102.256C20.866 102.256 20.1383 101.727 20.1383 100.525C20.1383 99.5149 20.9165 98.9337 22.2062 98.9337C23.2798 98.9337 23.8994 99.112 24.4686 99.4026V101.034L24.4758 101.04Z" fill="#004289"/>
<path d="M38.3747 98.2996V103.022H39.6356V98.1015C39.6356 95.7438 38.5188 94.7861 36.7175 94.7861C35.2909 94.7861 34.5704 95.3937 34.0516 96.1664C33.6337 95.3937 32.8772 94.7861 31.6379 94.7861C30.5932 94.7861 29.8511 95.2418 29.4043 95.9419V94.9578H28.1362V103.028H29.4043V98.3063C29.4043 96.5165 30.1609 95.7834 31.3713 95.7834C32.5818 95.7834 33.2663 96.457 33.2663 98.3063V103.028H34.5272V98.3063C34.5272 96.5165 35.2909 95.7834 36.487 95.7834C37.7623 95.7834 38.3819 96.457 38.3819 98.3063L38.3747 98.2996Z" fill="#004289"/>
<path d="M44.6792 98.3393C43.1877 97.7185 42.741 97.4477 42.741 96.7674C42.741 96.1863 43.2742 95.7636 44.2036 95.7636C45.1331 95.7636 45.7095 95.9947 46.394 96.4901L47.1001 95.6381C46.43 95.1296 45.4934 94.7861 44.2757 94.7861C42.6834 94.7861 41.5305 95.6117 41.5305 96.8401C41.5305 98.1345 42.2655 98.6233 44.0307 99.3167C45.587 99.9309 46.113 100.301 46.113 100.961C46.113 101.747 45.5438 102.209 44.3333 102.209C43.4615 102.209 42.6401 101.879 41.934 101.318L41.1919 102.163C42.0349 102.784 43.0868 103.193 44.2973 103.193C45.8248 103.193 47.3163 102.507 47.3163 100.922C47.3163 99.4752 46.3436 99.0327 44.6792 98.3459V98.3393Z" fill="#004289"/>
<path d="M54.6724 99.6665C54.6724 101.436 53.707 102.183 52.4965 102.183C51.0771 102.183 50.407 101.403 50.407 99.6665V94.9509H49.1533V99.8646C49.1533 102.183 50.371 103.18 52.2299 103.18C53.3467 103.18 54.1609 102.704 54.6652 102.031V103.015H55.9261V94.9443H54.6652V99.6598L54.6724 99.6665Z" fill="#004289"/>
<path d="M64.8245 103.022V98.1015C64.8245 95.7768 63.5996 94.7861 61.7335 94.7861C60.6311 94.7861 59.8097 95.255 59.3125 95.9419V94.9578H58.0444V103.028H59.3125V98.3063C59.3125 96.5429 60.2564 95.7834 61.4885 95.7834C62.8935 95.7834 63.5708 96.5693 63.5708 98.3063V103.028H64.8317L64.8245 103.022Z" fill="#004289"/>
<path d="M68.7874 105.115L69.1909 105.994C72.462 105.895 73.6509 104.732 73.6509 102.302V94.9512H72.3972V95.856C71.7775 95.2088 71.0282 94.7861 69.9186 94.7861C68.0669 94.7861 66.5898 96.2523 66.5898 99.1186C66.5898 101.985 67.9876 103.187 69.7529 103.187C70.9417 103.187 71.7847 102.652 72.4044 102.038V102.454C72.4044 104.329 71.7343 105.036 68.7946 105.115H68.7874ZM70.0627 102.19C68.6721 102.19 67.8291 101.133 67.8291 99.1054C67.8291 96.9325 68.5496 95.7834 70.0123 95.7834C71.057 95.7834 71.9072 96.3249 72.39 96.992V101.027C71.7703 101.741 70.9994 102.19 70.0555 102.19H70.0627Z" fill="#004289"/>
<path d="M87.535 97.5667C87.535 93.8749 85.2654 92.2568 82.1816 92.2568H79.0762V103.022H81.9438C85.0853 103.022 87.535 101.47 87.535 97.5601V97.5667ZM80.3875 93.3466H82.0807C84.7826 93.3466 86.2237 94.8589 86.2237 97.6064C86.2237 100.704 84.6457 101.932 82.1095 101.932H80.3803V93.3466H80.3875Z" fill="#004289"/>
<path d="M90.8927 95.9546V94.9573H89.6318V103.028H90.8927V98.2925C90.8927 96.7471 91.5772 95.8555 92.8093 95.8555C93.3929 95.8555 93.782 95.9744 94.1278 96.1593L94.4449 94.997C94.1495 94.8715 93.7243 94.7988 93.0759 94.7988C92.132 94.7988 91.289 95.314 90.8999 95.9678L90.8927 95.9546Z" fill="#004289"/>
<path d="M101.974 102.256L101.391 101.424C100.584 101.919 99.9784 102.19 98.9481 102.19C97.5142 102.19 96.6208 101.1 96.4983 99.3828H102.371C102.414 99.1912 102.428 99.0261 102.428 98.7487C102.428 96.4438 101.182 94.7861 98.8832 94.7861C96.7865 94.7861 95.2446 96.3778 95.2446 98.9403C95.2446 102.117 97.2044 103.187 98.8184 103.187C100.144 103.187 100.922 102.863 101.981 102.256H101.974ZM98.8688 95.7768C100.411 95.7768 101.153 96.8665 101.254 98.4383H96.4983C96.6424 96.6354 97.5575 95.7768 98.8688 95.7768Z" fill="#004289"/>
<path d="M106.615 103.187C107.875 103.187 108.747 102.652 109.367 102.038V103.022H110.628V97.3949C110.628 95.5192 109.439 94.7861 107.537 94.7861C106.391 94.7861 105.354 95.0437 104.583 95.4268L105.058 96.3646C105.779 95.9815 106.535 95.7438 107.458 95.7438C108.747 95.7438 109.367 96.3249 109.367 97.5335V98.4912C108.855 98.227 108.063 98.0223 107.184 98.0223C105.433 98.0223 103.797 98.795 103.797 100.611C103.797 102.559 105.246 103.187 106.615 103.187ZM107.105 98.9403C108.171 98.9403 108.798 99.1186 109.367 99.4092V101.04C108.834 101.714 107.976 102.256 106.845 102.256C105.714 102.256 105.044 101.727 105.044 100.525C105.044 99.5149 105.822 98.9337 107.112 98.9337L107.105 98.9403Z" fill="#004289"/>
<path d="M123.265 98.2996V103.022H124.519V98.1015C124.519 95.7438 123.402 94.7861 121.601 94.7861C120.174 94.7861 119.454 95.3937 118.935 96.1664C118.517 95.3937 117.768 94.7861 116.521 94.7861C115.477 94.7861 114.742 95.2418 114.288 95.9419V94.9578H113.034V103.028H114.288V98.3063C114.288 96.5165 115.044 95.7834 116.255 95.7834C117.465 95.7834 118.15 96.457 118.15 98.3063V103.028H119.404V98.3063C119.404 96.5165 120.174 95.7834 121.371 95.7834C122.639 95.7834 123.265 96.457 123.265 98.3063V98.2996Z" fill="#004289"/>
<path d="M133.936 96.9328C131.587 96.1667 131.155 95.6582 131.155 94.7666C131.155 93.875 131.825 93.1815 133.432 93.1815C134.613 93.1815 135.399 93.5316 136.249 94.1788L137.085 93.2409C136.098 92.5211 135.089 92.0918 133.518 92.0918C131.321 92.0918 129.844 93.1089 129.844 94.8392C129.844 96.3912 130.694 97.1441 133.237 97.9697C135.384 98.6829 136.04 99.2509 136.04 100.248C136.04 101.384 135.067 102.091 133.504 102.091C132.293 102.091 131.27 101.576 130.377 100.796L129.505 101.681C130.427 102.547 131.861 103.174 133.446 103.174C135.889 103.174 137.337 101.866 137.337 100.182C137.337 98.498 136.537 97.7782 133.936 96.913V96.9328Z" fill="#004289"/>
<path d="M142.683 95.7834C143.57 95.7834 144.16 96.074 144.794 96.6023L145.551 95.7372C144.859 95.1824 143.951 94.7861 142.763 94.7861C140.918 94.7861 138.973 96.041 138.973 99.0327C138.973 101.846 140.738 103.193 142.683 103.193C143.915 103.193 144.773 102.764 145.515 102.071L144.758 101.338C144.16 101.873 143.584 102.196 142.734 102.196C141.17 102.196 140.248 100.922 140.248 98.9337C140.248 96.9458 141.314 95.7834 142.69 95.7834H142.683Z" fill="#004289"/>
<path d="M150.94 94.7863C149.838 94.7863 149.01 95.2552 148.505 95.942V92.1445H147.251V103.029H148.505V98.3064C148.505 96.5364 149.471 95.7835 150.688 95.7835C152.101 95.7835 152.763 96.5629 152.763 98.3064V103.029H154.024V98.1017C154.024 95.7835 152.799 94.7863 150.933 94.7863H150.94Z" fill="#004289"/>
<path d="M159.644 94.7861C157.504 94.7861 155.79 96.2523 155.79 98.9997C155.79 101.747 157.432 103.193 159.579 103.193C161.727 103.193 163.441 101.674 163.441 98.9337C163.441 96.1929 161.784 94.7861 159.644 94.7861ZM159.623 102.196C158.095 102.196 157.065 101.093 157.065 98.9667C157.065 96.8401 158.095 95.7834 159.623 95.7834C161.15 95.7834 162.18 96.8467 162.18 98.9667C162.18 101.087 161.143 102.196 159.623 102.196Z" fill="#004289"/>
<path d="M166.604 92.1445H165.343V103.029H166.604V92.1445Z" fill="#004289"/>
<path d="M172.354 94.7861C171.216 94.7861 170.171 95.0503 169.407 95.4334L169.876 96.3778C170.596 95.9881 171.353 95.757 172.275 95.757C173.565 95.757 174.184 96.3448 174.184 97.5335V98.4978C173.666 98.227 172.873 98.0289 171.994 98.0289C170.243 98.0289 168.615 98.8016 168.615 100.618C168.615 102.573 170.056 103.193 171.432 103.193C172.693 103.193 173.565 102.665 174.184 102.044V103.028H175.445V97.4015C175.445 95.5192 174.256 94.7861 172.354 94.7861ZM174.184 101.04C173.651 101.714 172.787 102.256 171.655 102.256C170.589 102.256 169.861 101.727 169.861 100.532C169.861 99.5149 170.639 98.9469 171.929 98.9469C173.003 98.9469 173.622 99.1186 174.192 99.4092V101.04H174.184Z" fill="#004289"/>
<path d="M179.105 95.9551V94.9512H177.844V103.028H179.105V98.293C179.105 96.7542 179.79 95.8494 181.014 95.8494C181.605 95.8494 181.987 95.9683 182.34 96.1532L182.657 94.9843C182.362 94.8654 181.937 94.7861 181.288 94.7861C180.344 94.7861 179.501 95.3013 179.105 95.9551Z" fill="#004289"/>
<path d="M187.492 98.339C185.993 97.7182 185.547 97.4409 185.547 96.7606C185.547 96.1794 186.087 95.7567 187.009 95.7567C187.931 95.7567 188.522 95.9945 189.207 96.4832L189.913 95.6379C189.236 95.1293 188.306 94.7793 187.096 94.7793C185.496 94.7793 184.343 95.6048 184.343 96.8399C184.343 98.1343 185.085 98.623 186.851 99.3099C188.407 99.9241 188.933 100.294 188.933 100.954C188.933 101.747 188.357 102.203 187.16 102.203C186.281 102.203 185.46 101.872 184.754 101.311L184.019 102.156C184.855 102.777 185.914 103.187 187.124 103.187C188.645 103.187 190.143 102.5 190.143 100.915C190.143 99.4618 189.171 99.0259 187.506 98.3324L187.492 98.339Z" fill="#004289"/>
<path d="M195.872 94.7863C194.762 94.7863 193.941 95.2552 193.436 95.942V92.1445H192.183V103.029H193.436V98.3064C193.436 96.5364 194.395 95.7835 195.619 95.7835C197.024 95.7835 197.695 96.5629 197.695 98.3064V103.029H198.955V98.1017C198.955 95.7835 197.731 94.7863 195.872 94.7863Z" fill="#004289"/>
<path d="M202.695 94.9512H201.441V103.028H202.695V94.9512Z" fill="#004289"/>
<path d="M202.097 91.8604C201.578 91.8604 201.174 92.2302 201.174 92.6991C201.174 93.1416 201.578 93.5114 202.097 93.5114C202.558 93.5114 202.968 93.1416 202.968 92.6991C202.968 92.2302 202.558 91.8604 202.097 91.8604Z" fill="#004289"/>
<path d="M209.143 94.7861C207.955 94.7861 207.112 95.3211 206.492 95.9419V94.9578H205.238V106H206.492V102.124C207.112 102.764 207.868 103.193 208.978 103.193C210.822 103.193 212.299 101.714 212.299 98.861C212.299 96.0079 210.902 94.7861 209.143 94.7861ZM208.877 102.196C207.839 102.196 206.982 101.655 206.492 100.981V96.9524C207.112 96.2523 207.89 95.7834 208.826 95.7834C210.224 95.7834 211.067 96.8467 211.067 98.8742C211.067 101.04 210.347 102.196 208.877 102.196Z" fill="#004289"/>
<path d="M218.964 93.3534H224.555V92.2637H217.653V103.029H218.964V98.0095H222.185V96.9263H218.964V93.3534Z" fill="#004289"/>
<path d="M228.381 94.7861C226.241 94.7861 224.519 96.2523 224.519 98.9997C224.519 101.747 226.169 103.193 228.309 103.193C230.449 103.193 232.171 101.674 232.171 98.9337C232.171 96.1929 230.528 94.7861 228.381 94.7861ZM228.345 102.196C226.817 102.196 225.794 101.093 225.794 98.9667C225.794 96.8401 226.817 95.7834 228.345 95.7834C229.872 95.7834 230.917 96.8467 230.917 98.9667C230.917 101.087 229.88 102.196 228.345 102.196Z" fill="#004289"/>
<path d="M239.124 99.6667C239.124 101.437 238.173 102.19 236.948 102.19C235.536 102.19 234.866 101.41 234.866 99.6667V94.9512H233.605V99.8714C233.605 102.196 234.83 103.193 236.696 103.193C237.791 103.193 238.613 102.724 239.117 102.044V103.028H240.378V94.9512H239.117V99.6667H239.124Z" fill="#004289"/>
<path d="M246.185 94.7861C245.083 94.7861 244.261 95.255 243.75 95.9419V94.9578H242.489V103.035H243.75V98.3129C243.75 96.5429 244.708 95.79 245.933 95.79C247.345 95.79 248.015 96.5693 248.015 98.3129V103.035H249.269V98.1081C249.269 95.79 248.044 94.7927 246.178 94.7927L246.185 94.7861Z" fill="#004289"/>
<path d="M256.848 95.8628C256.229 95.2156 255.472 94.7863 254.363 94.7863C252.518 94.7863 251.041 96.2524 251.041 99.1253C251.041 101.998 252.432 103.194 254.197 103.194C255.386 103.194 256.222 102.665 256.848 102.044V103.029H258.109V92.1445H256.848V95.8694V95.8628ZM256.848 101.027C256.229 101.734 255.451 102.196 254.514 102.196C253.123 102.196 252.28 101.14 252.28 99.1055C252.28 96.9327 253.001 95.7835 254.463 95.7835C255.508 95.7835 256.351 96.3185 256.848 96.9987V101.027Z" fill="#004289"/>
<path d="M263.448 94.7861C262.303 94.7861 261.265 95.0503 260.494 95.4334L260.963 96.3778C261.69 95.9881 262.447 95.757 263.362 95.757C264.652 95.757 265.271 96.3448 265.271 97.5335V98.4978C264.752 98.227 263.96 98.0289 263.074 98.0289C261.337 98.0289 259.702 98.8016 259.702 100.618C259.702 102.573 261.15 103.193 262.526 103.193C263.787 103.193 264.652 102.665 265.271 102.044V103.028H266.532V97.4015C266.532 95.5192 265.343 94.7861 263.448 94.7861ZM265.271 101.04C264.738 101.714 263.881 102.256 262.735 102.256C261.669 102.256 260.948 101.727 260.948 100.532C260.948 99.5149 261.719 98.9469 263.009 98.9469C264.082 98.9469 264.702 99.1186 265.271 99.4092V101.04Z" fill="#004289"/>
<path d="M270.546 92.1445H269.285V94.958H268.197V95.9288H269.285V101.377C269.285 102.712 269.876 103.2 270.971 103.2C271.634 103.2 272.102 103.114 272.592 102.923L272.678 101.926C272.275 102.077 271.943 102.157 271.432 102.157C270.762 102.157 270.546 101.912 270.546 101.186V95.9288H272.729V94.958H270.546V92.1445Z" fill="#004289"/>
<path d="M275.582 91.8604C275.063 91.8604 274.652 92.2302 274.652 92.6991C274.652 93.1416 275.063 93.5114 275.582 93.5114C276.057 93.5114 276.461 93.1416 276.461 92.6991C276.461 92.2302 276.057 91.8604 275.582 91.8604Z" fill="#004289"/>
<path d="M276.18 94.9512H274.926V103.028H276.18V94.9512Z" fill="#004289"/>
<path d="M281.944 94.7861C279.804 94.7861 278.089 96.2523 278.089 98.9997C278.089 101.747 279.732 103.193 281.879 103.193C284.026 103.193 285.734 101.674 285.734 98.9337C285.734 96.1929 284.091 94.7861 281.944 94.7861ZM281.901 102.196C280.381 102.196 279.357 101.093 279.357 98.9667C279.357 96.8401 280.381 95.7834 281.901 95.7834C283.421 95.7834 284.473 96.8467 284.473 98.9667C284.473 101.087 283.436 102.196 281.901 102.196Z" fill="#004289"/>
<path d="M291.239 94.7861C290.129 94.7861 289.308 95.255 288.803 95.9419V94.9578H287.542V103.035H288.803V98.3129C288.803 96.5429 289.762 95.79 290.987 95.79C292.406 95.79 293.069 96.5693 293.069 98.3129V103.035H294.323V98.1081C294.323 95.79 293.098 94.7927 291.239 94.7927V94.7861Z" fill="#004289"/>
<path d="M161.229 17.9176L151.553 14.2456L161.229 10.5736L159.507 6.76947L149.831 10.4415L153.844 1.57184L149.694 0L145.688 8.86966L141.675 0L137.532 1.57184L141.538 10.4415L131.861 6.76947L130.146 10.5736L139.816 14.2456L130.146 17.9176L131.861 21.7217L141.538 18.0431L137.532 26.9128L141.682 28.4912L145.688 19.6216L149.694 28.4912L153.844 26.9128L149.831 18.0431L159.507 21.7217L161.229 17.9176Z" fill="#009FE3"/>
<path d="M98.5952 42.6777H105.037V26.9131H83.0249V32.223H98.5952V42.6777Z" fill="#009FE3"/>
<path d="M123.712 42.6777H130.146V26.9131H108.135V32.223H123.712V42.6777Z" fill="#009FE3"/>
<path d="M81.9873 50.8275H123.712V58.9442H130.146V45.5176H81.9873V50.8275Z" fill="#009FE3"/>
<path d="M97.5576 83.7439H130.139V61.6787H97.5576V83.7439ZM103.999 66.9886H123.712V78.434H103.999V66.9886Z" fill="#009FE3"/>
</g>
<defs>
<clipPath id="clip0_61_69">
<rect width="300" height="106" fill="white"/>
</clipPath>
</defs>
</svg>
