<svg width="119" height="47" viewBox="0 0 119 47" fill="none" xmlns="http://www.w3.org/2000/svg">
<g clip-path="url(#clip0_35_1944)">
<path d="M24.4991 30.2441C22.3327 30.2471 20.5493 31.9836 20.5493 34.1564C20.5493 36.3292 22.3327 38.0482 24.4991 38.054C26.6855 38.0453 28.4546 36.3088 28.4546 34.1564C28.4546 32.0041 26.6855 30.2471 24.4991 30.2441ZM24.4448 36.2707C23.313 36.2707 22.4556 35.3219 22.4556 34.1593C22.4556 32.9968 23.3702 32.0275 24.4963 32.0275C25.6223 32.0275 26.5055 32.9734 26.5055 34.1593C26.5055 35.3453 25.5795 36.2707 24.442 36.2707H24.4448Z" fill="#004289"/>
<path d="M6.36777 27.5505C6.97368 28.1625 7.66532 28.6955 8.34267 29.041L8.41413 29.0791L9.5802 27.6647L9.46874 27.6003C8.35982 26.9853 7.49098 26.2093 6.92509 25.2283C6.36206 24.2649 6.0734 23.1404 6.0734 21.8022V20.543H3.98703V21.6675C3.98703 23.1199 3.66407 24.262 3.06388 25.2635C2.38939 26.3704 1.39193 27.2635 0.114393 28.0893L0.00292969 28.1596L1.2719 29.5037L1.34049 29.4627C2.09215 29.041 2.8924 28.3939 3.58976 27.6735C4.19281 27.0439 4.71583 26.3645 5.03021 25.7232C5.33602 26.3499 5.8076 26.9912 6.37063 27.5417L6.36777 27.5505Z" fill="#004289"/>
<path d="M4.11279 37.132H12.8527V31.0146H4.11279V37.132ZM6.0734 32.7424H10.8835V35.4072H6.0734V32.7424Z" fill="#004289"/>
<path d="M12.884 20.1826H10.9434V30.3147H12.884V25.8314H15.1618V24.0305H12.884V20.1826Z" fill="#004289"/>
<path d="M62.4481 28.068C63.0854 28.6361 63.8171 29.1134 64.503 29.4209L64.5745 29.4561L65.6234 28.0007L65.5119 27.945C64.5116 27.4179 63.617 26.7678 62.9768 25.9772C62.3224 25.166 61.9337 24.1909 61.9337 23.0137V22.6681H64.8231V20.9229H56.9721V22.6681H59.8616V23.0869C59.8616 24.1557 59.5129 25.1543 58.9413 26.0182C58.2668 27.0548 57.2808 27.8923 56.3262 28.4311L56.2004 28.5014L57.4894 29.869L57.5609 29.8338C58.2582 29.4297 59.0242 28.8177 59.6815 28.1324C60.2074 27.5673 60.679 26.9699 60.9676 26.3754C61.3163 26.9523 61.8508 27.5321 62.4481 28.071V28.068Z" fill="#004289"/>
<path d="M76.5039 32.7834H83.569V37.132H85.5324V31.0527H76.5039V32.7834Z" fill="#004289"/>
<path d="M81.3798 25.8165C81.3798 24.859 80.9625 23.9775 80.3395 23.304H82.2801V21.5792H78.5761V19.6787H76.4725V21.5792H72.6799V23.304H74.6606C74.0575 23.9775 73.6345 24.8502 73.6345 25.8165C73.6345 27.9513 75.3522 29.6878 77.5014 29.6937C79.6507 29.6878 81.3798 27.9513 81.3826 25.8165H81.3798ZM75.5065 25.7375C75.5065 24.5544 76.4811 23.5529 77.4986 23.5529C78.516 23.5529 79.4878 24.5603 79.4906 25.7375C79.4906 26.9 78.516 27.9044 77.4986 27.9074C76.4783 27.9044 75.5065 26.9 75.5065 25.7375Z" fill="#004289"/>
<path d="M85.5324 20.1826H83.5918V30.3498H85.5324V26.4698H87.8131V24.6718H85.5324V20.1826Z" fill="#004289"/>
<path d="M69.0702 20.1826H67.1267V30.3498H69.0702V25.8314H71.348V24.0305H69.0702V20.1826Z" fill="#004289"/>
<path d="M113.235 27.8484H106.668V22.7238H111.672V20.9199H104.701V29.5995H113.235V27.8484Z" fill="#004289"/>
<path d="M26.8741 23.1988H23.8188V24.9822H26.8741V30.669H28.8176V20.1826H26.8741V23.1988Z" fill="#004289"/>
<path d="M21.9355 27.8141C22.5414 28.4261 23.2474 28.959 23.9276 29.3192L24.0019 29.3632L25.1708 27.9488L25.0565 27.8814C23.9476 27.2899 23.0959 26.5139 22.5271 25.5475C21.9469 24.5899 21.6583 23.4245 21.6583 22.0833V20.5459H19.5662V21.9574C19.5662 23.4098 19.249 24.549 18.6602 25.5329C17.9857 26.6603 16.974 27.5564 15.6936 28.3792L15.585 28.4495L16.8568 29.7995L16.9197 29.7585C17.6742 29.3368 18.4544 28.7248 19.1489 28.0249C19.7748 27.3836 20.3007 26.6896 20.6151 26.0161C20.9152 26.6251 21.3753 27.2518 21.9298 27.8141H21.9355Z" fill="#004289"/>
<path d="M64.9002 30.2441C62.7338 30.2471 60.9504 31.9836 60.9475 34.1564C60.9504 36.3088 62.7338 38.0482 64.9002 38.054C67.0837 38.0453 68.8557 36.3088 68.8557 34.1564C68.8557 32.0041 67.0837 30.2471 64.9002 30.2441ZM64.843 36.2707C63.7141 36.2707 62.8538 35.3219 62.8538 34.1593C62.8538 32.9968 63.7655 32.0275 64.9002 32.0275C66.0348 32.0275 66.9065 32.9734 66.9094 34.1593C66.9065 35.3219 65.9805 36.2707 64.843 36.2707Z" fill="#004289"/>
<path d="M109.523 31.7314H107.556V37.1313H116.748V35.3509H109.523V31.7314Z" fill="#004289"/>
<path d="M116.702 24.8797V20.1826H114.761V32.6837H116.702V26.6748H119V24.8797H116.702Z" fill="#004289"/>
<path d="M100.263 24.7626H98.6278V20.4696H96.793V36.6956H98.6278V26.7158H100.263V37.1319H102.169V20.1826H100.263V24.7626Z" fill="#004289"/>
<path d="M94.0952 27.011C93.6579 26.03 93.4778 24.9377 93.4778 23.5907V22.9494H95.6814V21.1221H89.2737V22.9494H91.5487V23.6229C91.5487 24.8967 91.3858 25.9363 90.9913 26.9026C90.5369 28.0095 89.771 29.011 88.5506 30.077L88.4648 30.159L89.6709 31.383L89.7452 31.3244C90.3511 30.8647 90.9856 30.2 91.5172 29.5147C91.9631 28.9349 92.3403 28.3375 92.5804 27.8104C92.8233 28.3229 93.2035 28.9115 93.6465 29.462C94.1638 30.1062 94.744 30.7183 95.3013 31.0814L95.3784 31.1341L96.393 29.8895L96.313 29.8134C95.2212 28.8383 94.5439 27.9686 94.098 27.0081L94.0952 27.011Z" fill="#004289"/>
<path d="M5.52161 42.9795C4.58989 42.6398 4.41555 42.4114 4.41555 42.019C4.41555 41.6266 4.6842 41.3162 5.32155 41.3162C5.7874 41.3162 6.10179 41.4714 6.43904 41.7584L6.77057 41.3396C6.37902 41.0204 5.97889 40.8301 5.35584 40.8301C4.48414 40.8301 3.89539 41.284 3.89539 42.0512C3.89539 42.7394 4.23835 43.0703 5.24152 43.4422C6.09321 43.7555 6.3533 44.0103 6.3533 44.4495C6.3533 44.9561 5.96746 45.2665 5.34727 45.2665C4.86712 45.2665 4.46128 45.041 4.10974 44.6955L3.76392 45.0908C4.12974 45.4686 4.69849 45.7497 5.33012 45.7497C6.30185 45.7497 6.87346 45.1699 6.87346 44.4232C6.87346 43.6764 6.55622 43.3572 5.52447 42.9736L5.52161 42.9795Z" fill="#004289"/>
<path d="M8.98545 42.0273C8.53102 42.0273 8.1166 42.1415 7.81079 42.3114L7.99942 42.7272C8.28523 42.5574 8.58532 42.452 8.95115 42.452C9.45988 42.452 9.71139 42.7096 9.71139 43.2455V43.6701C9.50561 43.553 9.19122 43.4622 8.83683 43.4622C8.14518 43.4622 7.49927 43.8048 7.49927 44.6101C7.49927 45.474 8.07373 45.7522 8.61676 45.7522C9.11692 45.7522 9.45988 45.515 9.70853 45.2427V45.679H10.2058V43.184C10.2058 42.3524 9.73425 42.0273 8.98545 42.0273ZM9.70853 44.8005C9.49703 45.0992 9.15407 45.3393 8.7025 45.3393C8.27665 45.3393 7.98799 45.105 7.98799 44.5721C7.98799 44.124 8.29666 43.8663 8.80825 43.8663C9.23409 43.8663 9.47989 43.9454 9.70567 44.0743V44.7976L9.70853 44.8005Z" fill="#004289"/>
<path d="M15.2217 43.5852V45.679H15.7218V43.4974C15.7218 42.452 15.2788 42.0273 14.5643 42.0273C13.9984 42.0273 13.7126 42.2968 13.5068 42.6394C13.3411 42.2968 13.041 42.0273 12.5494 42.0273C12.135 42.0273 11.8406 42.2294 11.6634 42.5398V42.1035H11.1604V45.6819H11.6634V43.5882C11.6634 42.7946 11.9635 42.4695 12.4437 42.4695C12.9238 42.4695 13.1953 42.7682 13.1953 43.5882V45.6819H13.6955V43.5882C13.6955 42.7946 13.9984 42.4695 14.4729 42.4695C14.9787 42.4695 15.2245 42.7682 15.2245 43.5882L15.2217 43.5852Z" fill="#004289"/>
<path d="M17.7226 43.6028C17.131 43.3275 16.9538 43.2075 16.9538 42.9058C16.9538 42.6482 17.1653 42.4607 17.534 42.4607C17.9027 42.4607 18.1313 42.5632 18.4029 42.7829L18.6829 42.4051C18.4171 42.1796 18.0456 42.0273 17.5626 42.0273C16.931 42.0273 16.4737 42.3934 16.4737 42.9381C16.4737 43.512 16.7652 43.7287 17.4654 44.0362C18.0828 44.3085 18.2914 44.4725 18.2914 44.7653C18.2914 45.1138 18.0656 45.3188 17.5855 45.3188C17.2396 45.3188 16.9138 45.1724 16.6337 44.9235L16.3394 45.2983C16.6737 45.5736 17.091 45.7551 17.5712 45.7551C18.1771 45.7551 18.7687 45.4506 18.7687 44.7478C18.7687 44.1065 18.3829 43.9103 17.7226 43.6057V43.6028Z" fill="#004289"/>
<path d="M21.6866 44.1914C21.6866 44.9762 21.3036 45.3071 20.8234 45.3071C20.2604 45.3071 19.9946 44.9616 19.9946 44.1914V42.1006H19.4973V44.2793C19.4973 45.3071 19.9803 45.7493 20.7177 45.7493C21.1607 45.7493 21.4836 45.5385 21.6837 45.2398V45.6761H22.1839V42.0977H21.6837V44.1885L21.6866 44.1914Z" fill="#004289"/>
<path d="M25.7136 45.679V43.4974C25.7136 42.4666 25.2277 42.0273 24.4875 42.0273C24.0502 42.0273 23.7244 42.2353 23.5272 42.5398V42.1035H23.0242V45.6819H23.5272V43.5882C23.5272 42.8063 23.9016 42.4695 24.3903 42.4695C24.9476 42.4695 25.2163 42.818 25.2163 43.5882V45.6819H25.7164L25.7136 45.679Z" fill="#004289"/>
<path d="M27.2855 46.6073L27.4456 46.9968C28.7431 46.9528 29.2147 46.4374 29.2147 45.3598V42.1006H28.7174V42.5017C28.4716 42.2148 28.1744 42.0273 27.7342 42.0273C26.9997 42.0273 26.4138 42.6774 26.4138 43.9483C26.4138 45.2192 26.9683 45.7522 27.6685 45.7522C28.1401 45.7522 28.4745 45.515 28.7203 45.2427V45.4272C28.7203 46.2588 28.4545 46.5721 27.2884 46.6073H27.2855ZM27.7914 45.31C27.2398 45.31 26.9054 44.8415 26.9054 43.9425C26.9054 42.9791 27.1912 42.4695 27.7714 42.4695C28.1858 42.4695 28.523 42.7096 28.7145 43.0054V44.7946C28.4687 45.1109 28.1629 45.31 27.7885 45.31H27.7914Z" fill="#004289"/>
<path d="M34.722 43.2606C34.722 41.6237 33.8218 40.9062 32.5985 40.9062H31.3667V45.6795H32.5042C33.7503 45.6795 34.722 44.9913 34.722 43.2577V43.2606ZM31.8869 41.3894H32.5585C33.6303 41.3894 34.2019 42.06 34.2019 43.2782C34.2019 44.6516 33.576 45.1963 32.5699 45.1963H31.884V41.3894H31.8869Z" fill="#004289"/>
<path d="M36.0541 42.5457V42.1035H35.554V45.6819H36.0541V43.5823C36.0541 42.8971 36.3256 42.5017 36.8143 42.5017C37.0458 42.5017 37.2002 42.5545 37.3374 42.6364L37.4631 42.1211C37.3459 42.0654 37.1773 42.0332 36.9201 42.0332C36.5457 42.0332 36.2113 42.2616 36.057 42.5515L36.0541 42.5457Z" fill="#004289"/>
<path d="M40.4497 45.3393L40.2182 44.9703C39.8981 45.19 39.658 45.31 39.2493 45.31C38.6806 45.31 38.3262 44.8268 38.2776 44.0655H40.6069C40.624 43.9805 40.6297 43.9073 40.6297 43.7844C40.6297 42.7624 40.1353 42.0273 39.2236 42.0273C38.3919 42.0273 37.7803 42.7331 37.7803 43.8693C37.7803 45.2778 38.5577 45.7522 39.1979 45.7522C39.7237 45.7522 40.0324 45.6087 40.4525 45.3393H40.4497ZM39.2179 42.4666C39.8295 42.4666 40.1239 42.9498 40.1639 43.6467H38.2776C38.3347 42.8473 38.6977 42.4666 39.2179 42.4666Z" fill="#004289"/>
<path d="M42.2903 45.7522C42.7905 45.7522 43.1363 45.515 43.3821 45.2427V45.679H43.8823V43.184C43.8823 42.3524 43.4107 42.0273 42.6562 42.0273C42.2017 42.0273 41.7902 42.1415 41.4844 42.3114L41.673 42.7272C41.9588 42.5574 42.2589 42.452 42.6247 42.452C43.1363 42.452 43.3821 42.7096 43.3821 43.2455V43.6701C43.1792 43.553 42.8648 43.4622 42.5161 43.4622C41.8216 43.4622 41.1729 43.8048 41.1729 44.6101C41.1729 45.474 41.7473 45.7522 42.2903 45.7522ZM42.4847 43.8693C42.9077 43.8693 43.1563 43.9483 43.3821 44.0772V44.8005C43.1706 45.0992 42.8305 45.3393 42.3818 45.3393C41.9331 45.3393 41.6673 45.105 41.6673 44.5721C41.6673 44.124 41.976 43.8663 42.4875 43.8663L42.4847 43.8693Z" fill="#004289"/>
<path d="M48.8951 43.5852V45.679H49.3924V43.4974C49.3924 42.452 48.9494 42.0273 48.2349 42.0273C47.669 42.0273 47.3832 42.2968 47.1774 42.6394C47.0116 42.2968 46.7144 42.0273 46.22 42.0273C45.8055 42.0273 45.514 42.2294 45.334 42.5398V42.1035H44.8367V45.6819H45.334V43.5882C45.334 42.7946 45.6341 42.4695 46.1142 42.4695C46.5944 42.4695 46.8659 42.7682 46.8659 43.5882V45.6819H47.3632V43.5882C47.3632 42.7946 47.669 42.4695 48.1434 42.4695C48.6464 42.4695 48.8951 42.7682 48.8951 43.5882V43.5852Z" fill="#004289"/>
<path d="M53.1278 42.9795C52.1961 42.6398 52.0246 42.4143 52.0246 42.019C52.0246 41.6237 52.2904 41.3162 52.9277 41.3162C53.3965 41.3162 53.708 41.4714 54.0452 41.7584L54.3768 41.3425C53.9852 41.0233 53.5851 40.833 52.962 40.833C52.0903 40.833 51.5044 41.284 51.5044 42.0512C51.5044 42.7394 51.8417 43.0732 52.8506 43.4392C53.7023 43.7555 53.9624 44.0073 53.9624 44.4495C53.9624 44.9532 53.5765 45.2665 52.9563 45.2665C52.4762 45.2665 52.0703 45.0381 51.7159 44.6926L51.3701 45.085C51.7359 45.4686 52.3047 45.7468 52.9335 45.7468C53.9023 45.7468 54.4768 45.167 54.4768 44.4202C54.4768 43.6735 54.1596 43.3543 53.1278 42.9707V42.9795Z" fill="#004289"/>
<path d="M56.5976 42.4695C56.9492 42.4695 57.1835 42.5984 57.435 42.8326L57.7351 42.449C57.4607 42.203 57.1006 42.0273 56.6291 42.0273C55.8974 42.0273 55.1257 42.5837 55.1257 43.9103C55.1257 45.1577 55.8259 45.7551 56.5976 45.7551C57.0863 45.7551 57.4265 45.5648 57.7208 45.2573L57.4207 44.9323C57.1835 45.1695 56.9549 45.313 56.6176 45.313C55.9974 45.313 55.6316 44.7478 55.6316 43.8663C55.6316 42.9849 56.0546 42.4695 56.6005 42.4695H56.5976Z" fill="#004289"/>
<path d="M59.8727 42.0278C59.4355 42.0278 59.1068 42.2357 58.9067 42.5402V40.8564H58.4094V45.6824H58.9067V43.5886C58.9067 42.8038 59.2897 42.47 59.7727 42.47C60.3329 42.47 60.5958 42.8155 60.5958 43.5886V45.6824H61.096V43.4978C61.096 42.47 60.6101 42.0278 59.8699 42.0278H59.8727Z" fill="#004289"/>
<path d="M63.3254 42.0273C62.4766 42.0273 61.7964 42.6774 61.7964 43.8956C61.7964 45.1138 62.448 45.7551 63.2997 45.7551C64.1514 45.7551 64.8316 45.0816 64.8316 43.8663C64.8316 42.6511 64.1743 42.0273 63.3254 42.0273ZM63.3169 45.313C62.711 45.313 62.3023 44.8239 62.3023 43.881C62.3023 42.9381 62.711 42.4695 63.3169 42.4695C63.9228 42.4695 64.3315 42.941 64.3315 43.881C64.3315 44.821 63.9199 45.313 63.3169 45.313Z" fill="#004289"/>
<path d="M66.0863 40.8564H65.5862V45.6824H66.0863V40.8564Z" fill="#004289"/>
<path d="M68.3669 42.0273C67.9153 42.0273 67.5009 42.1445 67.1979 42.3143L67.3837 42.7331C67.6695 42.5603 67.9696 42.4578 68.3354 42.4578C68.847 42.4578 69.0928 42.7184 69.0928 43.2455V43.6731C68.887 43.553 68.5726 43.4652 68.224 43.4652C67.5295 43.4652 66.8835 43.8078 66.8835 44.6131C66.8835 45.4799 67.4551 45.7551 68.001 45.7551C68.5012 45.7551 68.847 45.5209 69.0928 45.2456V45.6819H69.593V43.187C69.593 42.3524 69.1214 42.0273 68.3669 42.0273ZM69.0928 44.8005C68.8813 45.0992 68.5383 45.3393 68.0896 45.3393C67.6666 45.3393 67.378 45.105 67.378 44.575C67.378 44.124 67.6867 43.8722 68.1982 43.8722C68.6241 43.8722 68.8699 43.9483 69.0957 44.0772V44.8005H69.0928Z" fill="#004289"/>
<path d="M71.0448 42.5457V42.1006H70.5447V45.6819H71.0448V43.5823C71.0448 42.9 71.3163 42.4988 71.8022 42.4988C72.0366 42.4988 72.188 42.5515 72.3281 42.6335L72.4538 42.1152C72.3367 42.0625 72.168 42.0273 71.9108 42.0273C71.5364 42.0273 71.202 42.2558 71.0448 42.5457Z" fill="#004289"/>
<path d="M74.3717 43.6028C73.7772 43.3275 73.6 43.2045 73.6 42.9029C73.6 42.6452 73.8144 42.4578 74.1802 42.4578C74.5461 42.4578 74.7804 42.5632 75.0519 42.7799L75.332 42.4051C75.0634 42.1796 74.6947 42.0244 74.2145 42.0244C73.58 42.0244 73.1228 42.3905 73.1228 42.9381C73.1228 43.512 73.4171 43.7287 74.1173 44.0333C74.7347 44.3056 74.9433 44.4696 74.9433 44.7624C74.9433 45.1138 74.7147 45.3159 74.2402 45.3159C73.8916 45.3159 73.5658 45.1695 73.2857 44.9206L72.9941 45.2954C73.3257 45.5706 73.7458 45.7522 74.226 45.7522C74.829 45.7522 75.4235 45.4477 75.4235 44.7449C75.4235 44.1006 75.0376 43.9073 74.3774 43.5999L74.3717 43.6028Z" fill="#004289"/>
<path d="M77.6955 42.0278C77.2554 42.0278 76.9295 42.2357 76.7295 42.5402V40.8564H76.2322V45.6824H76.7295V43.5886C76.7295 42.8038 77.1096 42.47 77.5955 42.47C78.1528 42.47 78.4186 42.8155 78.4186 43.5886V45.6824H78.9187V43.4978C78.9187 42.47 78.4329 42.0278 77.6955 42.0278Z" fill="#004289"/>
<path d="M80.4021 42.1006H79.9048V45.682H80.4021V42.1006Z" fill="#004289"/>
<path d="M80.1649 40.7305C79.9591 40.7305 79.7991 40.8945 79.7991 41.1024C79.7991 41.2986 79.9591 41.4626 80.1649 41.4626C80.3478 41.4626 80.5107 41.2986 80.5107 41.1024C80.5107 40.8945 80.3478 40.7305 80.1649 40.7305Z" fill="#004289"/>
<path d="M82.9599 42.0273C82.4884 42.0273 82.154 42.2645 81.9082 42.5398V42.1035H81.4109V46.9997H81.9082V45.2807C82.154 45.5648 82.4541 45.7551 82.8942 45.7551C83.6259 45.7551 84.2118 45.0992 84.2118 43.8341C84.2118 42.5691 83.6573 42.0273 82.9599 42.0273ZM82.8542 45.313C82.4426 45.313 82.1025 45.0728 81.9082 44.7741V42.9878C82.154 42.6774 82.4626 42.4695 82.8342 42.4695C83.3886 42.4695 83.723 42.941 83.723 43.84C83.723 44.8005 83.4372 45.313 82.8542 45.313Z" fill="#004289"/>
<path d="M86.8556 41.3924H89.0735V40.9092H86.3354V45.6824H86.8556V43.4568H88.1332V42.9766H86.8556V41.3924Z" fill="#004289"/>
<path d="M90.591 42.0273C89.7422 42.0273 89.0591 42.6774 89.0591 43.8956C89.0591 45.1138 89.7136 45.7551 90.5624 45.7551C91.4112 45.7551 92.0943 45.0816 92.0943 43.8663C92.0943 42.6511 91.4427 42.0273 90.591 42.0273ZM90.5767 45.313C89.9708 45.313 89.565 44.8239 89.565 43.881C89.565 42.9381 89.9708 42.4695 90.5767 42.4695C91.1826 42.4695 91.597 42.941 91.597 43.881C91.597 44.821 91.1855 45.313 90.5767 45.313Z" fill="#004289"/>
<path d="M94.8523 44.1914C94.8523 44.9762 94.4751 45.3101 93.9892 45.3101C93.429 45.3101 93.1632 44.9645 93.1632 44.1914V42.1006H92.6631V44.2822C92.6631 45.313 93.149 45.7552 93.8892 45.7552C94.3236 45.7552 94.6494 45.5472 94.8495 45.2456V45.682H95.3496V42.1006H94.8495V44.1914H94.8523Z" fill="#004289"/>
<path d="M97.6532 42.0273C97.2159 42.0273 96.8901 42.2353 96.6872 42.5398V42.1035H96.187V45.6848H96.6872V43.5911C96.6872 42.8063 97.0673 42.4724 97.5532 42.4724C98.1133 42.4724 98.3791 42.818 98.3791 43.5911V45.6848H98.8764V43.5003C98.8764 42.4725 98.3906 42.0303 97.6503 42.0303L97.6532 42.0273Z" fill="#004289"/>
<path d="M101.883 42.5051C101.637 42.2181 101.337 42.0278 100.897 42.0278C100.165 42.0278 99.5796 42.6779 99.5796 43.9517C99.5796 45.2255 100.131 45.7556 100.831 45.7556C101.303 45.7556 101.635 45.5213 101.883 45.246V45.6824H102.383V40.8564H101.883V42.508V42.5051ZM101.883 44.7951C101.637 45.1084 101.329 45.3134 100.957 45.3134C100.406 45.3134 100.071 44.8449 100.071 43.9429C100.071 42.9795 100.357 42.47 100.937 42.47C101.352 42.47 101.686 42.7072 101.883 43.0088V44.7951Z" fill="#004289"/>
<path d="M104.501 42.0273C104.047 42.0273 103.635 42.1445 103.329 42.3143L103.515 42.7331C103.804 42.5603 104.104 42.4578 104.467 42.4578C104.978 42.4578 105.224 42.7184 105.224 43.2455V43.6731C105.018 43.553 104.704 43.4652 104.352 43.4652C103.664 43.4652 103.015 43.8078 103.015 44.6131C103.015 45.4799 103.589 45.7551 104.135 45.7551C104.635 45.7551 104.978 45.5209 105.224 45.2456V45.6819H105.724V43.187C105.724 42.3524 105.253 42.0273 104.501 42.0273ZM105.224 44.8005C105.013 45.0992 104.673 45.3393 104.218 45.3393C103.795 45.3393 103.509 45.105 103.509 44.575C103.509 44.124 103.815 43.8722 104.327 43.8722C104.753 43.8722 104.998 43.9483 105.224 44.0772V44.8005Z" fill="#004289"/>
<path d="M107.316 40.8564H106.816V42.1039H106.385V42.5344H106.816V44.9503C106.816 45.5418 107.05 45.7585 107.485 45.7585C107.748 45.7585 107.934 45.7204 108.128 45.6355L108.162 45.1933C108.002 45.2607 107.871 45.2958 107.668 45.2958C107.402 45.2958 107.316 45.1875 107.316 44.8654V42.5344H108.182V42.1039H107.316V40.8564Z" fill="#004289"/>
<path d="M109.314 40.7305C109.108 40.7305 108.945 40.8945 108.945 41.1024C108.945 41.2986 109.108 41.4626 109.314 41.4626C109.503 41.4626 109.663 41.2986 109.663 41.1024C109.663 40.8945 109.503 40.7305 109.314 40.7305Z" fill="#004289"/>
<path d="M109.551 42.1006H109.054V45.682H109.551V42.1006Z" fill="#004289"/>
<path d="M111.838 42.0273C110.989 42.0273 110.309 42.6774 110.309 43.8956C110.309 45.1138 110.96 45.7551 111.812 45.7551C112.664 45.7551 113.341 45.0816 113.341 43.8663C113.341 42.6511 112.689 42.0273 111.838 42.0273ZM111.82 45.313C111.217 45.313 110.812 44.8239 110.812 43.881C110.812 42.9381 111.217 42.4695 111.82 42.4695C112.424 42.4695 112.841 42.941 112.841 43.881C112.841 44.821 112.429 45.313 111.82 45.313Z" fill="#004289"/>
<path d="M115.525 42.0273C115.084 42.0273 114.759 42.2353 114.559 42.5398V42.1035H114.058V45.6848H114.559V43.5911C114.559 42.8063 114.939 42.4724 115.424 42.4724C115.988 42.4724 116.25 42.818 116.25 43.5911V45.6848H116.748V43.5003C116.748 42.4725 116.262 42.0303 115.525 42.0303V42.0273Z" fill="#004289"/>
<path d="M63.9541 7.94461L60.1157 6.31645L63.9541 4.68829L63.271 3.00156L59.4327 4.62972L61.0246 0.696947L59.3784 0L57.7893 3.93277L56.1974 0L54.554 0.696947L56.1431 4.62972L52.3047 3.00156L51.6245 4.68829L55.46 6.31645L51.6245 7.94461L52.3047 9.63134L56.1431 8.00025L54.554 11.933L56.2002 12.6329L57.7893 8.70012L59.3784 12.6329L61.0246 11.933L59.4327 8.00025L63.271 9.63134L63.9541 7.94461Z" fill="#009FE3"/>
<path d="M39.1093 18.9226H41.6644V11.9326H32.9331V14.287H39.1093V18.9226Z" fill="#009FE3"/>
<path d="M49.0724 18.9226H51.6246V11.9326H42.8933V14.287H49.0724V18.9226Z" fill="#009FE3"/>
<path d="M32.5215 22.536H49.0724V26.135H51.6246V20.1816H32.5215V22.536Z" fill="#009FE3"/>
<path d="M38.6978 37.1313H51.6218V27.3477H38.6978V37.1313ZM41.2528 29.702H49.0724V34.7769H41.2528V29.702Z" fill="#009FE3"/>
</g>
<defs>
<clipPath id="clip0_35_1944">
<rect width="119" height="47" fill="white"/>
</clipPath>
</defs>
</svg>
