<svg width="12" height="12" viewBox="0 0 12 12" fill="none" xmlns="http://www.w3.org/2000/svg">
<path d="M5.99951 11.6654C5.85773 11.6654 5.73901 11.6174 5.64334 11.5215C5.54756 11.4258 5.49967 11.307 5.49967 11.1654V6.4987H0.833008C0.691341 6.4987 0.572619 6.45075 0.476841 6.35486C0.380952 6.25898 0.333008 6.1402 0.333008 5.99853C0.333008 5.85675 0.380952 5.73803 0.476841 5.64236C0.572619 5.54659 0.691341 5.4987 0.833008 5.4987H5.49967V0.832031C5.49967 0.690365 5.54762 0.571642 5.64351 0.475865C5.7394 0.379976 5.85817 0.332031 5.99984 0.332031C6.14162 0.332031 6.26034 0.379976 6.35601 0.475865C6.45179 0.571642 6.49967 0.690365 6.49967 0.832031V5.4987H11.1663C11.308 5.4987 11.4267 5.54664 11.5225 5.64253C11.6184 5.73842 11.6663 5.8572 11.6663 5.99886C11.6663 6.14064 11.6184 6.25936 11.5225 6.35503C11.4267 6.45081 11.308 6.4987 11.1663 6.4987H6.49967V11.1654C6.49967 11.307 6.45173 11.4258 6.35584 11.5215C6.25995 11.6174 6.14117 11.6654 5.99951 11.6654Z" fill="#656F83"/>
</svg>
