<svg width="18" height="10" viewBox="0 0 18 10" fill="none" xmlns="http://www.w3.org/2000/svg">
<path d="M8.99993 1.91997L2.0949 8.82499C1.91279 9.0071 1.69837 9.09586 1.45163 9.09128C1.20474 9.08655 0.990245 8.99312 0.808134 8.81101C0.626022 8.62875 0.534965 8.41425 0.534965 8.16751C0.534965 7.92077 0.626022 7.70628 0.808134 7.52401L7.8259 0.49226C7.99167 0.326496 8.17737 0.203663 8.38301 0.12376C8.58865 0.0438572 8.79429 0.00390587 8.99993 0.00390588C9.20556 0.00390589 9.4112 0.0438573 9.61684 0.12376C9.82248 0.203663 10.0082 0.326496 10.1739 0.49226L17.2059 7.52401C17.388 7.70628 17.4767 7.92314 17.472 8.17462C17.4673 8.42609 17.3738 8.64288 17.1917 8.82499C17.0096 9.0071 16.7951 9.09816 16.5482 9.09816C16.3015 9.09816 16.0871 9.0071 15.9049 8.82499L8.99993 1.91997Z" fill="white"/>
</svg>
