<svg width="20" height="20" viewBox="0 0 20 20" fill="none" xmlns="http://www.w3.org/2000/svg">
<path d="M10.3748 10.3753C9.05713 10.3753 7.92909 9.90614 6.99072 8.96777C6.05235 8.02941 5.58317 6.90137 5.58317 5.58366C5.58317 4.26595 6.05235 3.13791 6.99072 2.19954C7.92909 1.26118 9.05713 0.791992 10.3748 0.791992C11.6925 0.791992 12.8206 1.26118 13.759 2.19954C14.6973 3.13791 15.1665 4.26595 15.1665 5.58366C15.1665 6.90137 14.6973 8.02941 13.759 8.96777C12.8206 9.90614 11.6925 10.3753 10.3748 10.3753ZM0.791504 17.5628V16.6045C0.791504 15.9257 0.9662 15.3018 1.31559 14.7327C1.66498 14.1637 2.12918 13.7295 2.70817 13.43C3.94602 12.8111 5.20383 12.3469 6.48161 12.0374C7.75939 11.728 9.05713 11.5732 10.3748 11.5732C11.6925 11.5732 12.9903 11.728 14.2681 12.0374C15.5458 12.3469 16.8037 12.8111 18.0415 13.43C18.6205 13.7295 19.0847 14.1637 19.4341 14.7327C19.7835 15.3018 19.9582 15.9257 19.9582 16.6045V17.5628C19.9582 18.2217 19.7236 18.7857 19.2544 19.2549C18.7852 19.7241 18.2212 19.9587 17.5623 19.9587H3.18734C2.52848 19.9587 1.96446 19.7241 1.49528 19.2549C1.0261 18.7857 0.791504 18.2217 0.791504 17.5628ZM3.18734 17.5628H17.5623V16.6045C17.5623 16.3849 17.5074 16.1852 17.3976 16.0055C17.2878 15.8258 17.1431 15.6861 16.9634 15.5863C15.8853 15.0472 14.7971 14.6429 13.6991 14.3734C12.601 14.1038 11.4929 13.9691 10.3748 13.9691C9.25678 13.9691 8.14871 14.1038 7.05062 14.3734C5.95253 14.6429 4.86442 15.0472 3.7863 15.5863C3.60661 15.6861 3.46186 15.8258 3.35205 16.0055C3.24224 16.1852 3.18734 16.3849 3.18734 16.6045V17.5628ZM10.3748 7.97949C11.0337 7.97949 11.5977 7.7449 12.0669 7.27572C12.5361 6.80653 12.7707 6.24251 12.7707 5.58366C12.7707 4.9248 12.5361 4.36079 12.0669 3.8916C11.5977 3.42242 11.0337 3.18783 10.3748 3.18783C9.71598 3.18783 9.15196 3.42242 8.68278 3.8916C8.2136 4.36079 7.979 4.9248 7.979 5.58366C7.979 6.24251 8.2136 6.80653 8.68278 7.27572C9.15196 7.7449 9.71598 7.97949 10.3748 7.97949Z" fill="#333A46"/>
</svg>
