<svg width="25" height="25" viewBox="0 0 25 25" fill="none" xmlns="http://www.w3.org/2000/svg">
<path d="M12.6252 24.3538C10.988 24.3538 9.4407 24.0394 7.98324 23.4105C6.52577 22.7816 5.25298 21.9231 4.16488 20.835C3.07677 19.7469 2.21826 18.4741 1.58936 17.0166C0.960449 15.5591 0.645996 14.0118 0.645996 12.3747C0.645996 10.7176 0.960449 9.16526 1.58936 7.71777C2.21826 6.27029 3.07677 5.0025 4.16488 3.91439C5.25298 2.82628 6.52577 1.96777 7.98324 1.33887C9.4407 0.709961 10.988 0.395508 12.6252 0.395508C14.2823 0.395508 15.8346 0.709961 17.2821 1.33887C18.7295 1.96777 19.9973 2.82628 21.0854 3.91439C22.1736 5.0025 23.0321 6.27029 23.661 7.71777C24.2899 9.16526 24.6043 10.7176 24.6043 12.3747C24.6043 14.0118 24.2899 15.5591 23.661 17.0166C23.0321 18.4741 22.1736 19.7469 21.0854 20.835C19.9973 21.9231 18.7295 22.7816 17.2821 23.4105C15.8346 24.0394 14.2823 24.3538 12.6252 24.3538ZM12.6252 21.8981C13.1443 21.1794 13.5935 20.4307 13.9728 19.652C14.3522 18.8734 14.6616 18.0448 14.9012 17.1663H10.3491C10.5887 18.0448 10.8982 18.8734 11.2775 19.652C11.6568 20.4307 12.1061 21.1794 12.6252 21.8981ZM9.51058 21.4189C9.1512 20.7601 8.83675 20.0763 8.56722 19.3675C8.29769 18.6587 8.07308 17.925 7.89339 17.1663H4.35954C4.93853 18.1646 5.66227 19.0331 6.53076 19.7718C7.39925 20.5105 8.39252 21.0596 9.51058 21.4189ZM15.7397 21.4189C16.8578 21.0596 17.8511 20.5105 18.7196 19.7718C19.5881 19.0331 20.3118 18.1646 20.8908 17.1663H17.3569C17.1772 17.925 16.9526 18.6587 16.6831 19.3675C16.4136 20.0763 16.0991 20.7601 15.7397 21.4189ZM3.34131 14.7705H7.41423C7.35433 14.3712 7.30941 13.9769 7.27946 13.5876C7.24951 13.1982 7.23454 12.7939 7.23454 12.3747C7.23454 11.9554 7.24951 11.5511 7.27946 11.1618C7.30941 10.7725 7.35433 10.3781 7.41423 9.97884H3.34131C3.24148 10.3781 3.16661 10.7725 3.1167 11.1618C3.06679 11.5511 3.04183 11.9554 3.04183 12.3747C3.04183 12.7939 3.06679 13.1982 3.1167 13.5876C3.16661 13.9769 3.24148 14.3712 3.34131 14.7705ZM9.81006 14.7705H15.4403C15.5002 14.3712 15.5451 13.9769 15.575 13.5876C15.605 13.1982 15.62 12.7939 15.62 12.3747C15.62 11.9554 15.605 11.5511 15.575 11.1618C15.5451 10.7725 15.5002 10.3781 15.4403 9.97884H9.81006C9.75016 10.3781 9.70524 10.7725 9.67529 11.1618C9.64534 11.5511 9.63037 11.9554 9.63037 12.3747C9.63037 12.7939 9.64534 13.1982 9.67529 13.5876C9.70524 13.9769 9.75016 14.3712 9.81006 14.7705ZM17.8361 14.7705H21.909C22.0088 14.3712 22.0837 13.9769 22.1336 13.5876C22.1835 13.1982 22.2085 12.7939 22.2085 12.3747C22.2085 11.9554 22.1835 11.5511 22.1336 11.1618C22.0837 10.7725 22.0088 10.3781 21.909 9.97884H17.8361C17.896 10.3781 17.9409 10.7725 17.9709 11.1618C18.0008 11.5511 18.0158 11.9554 18.0158 12.3747C18.0158 12.7939 18.0008 13.1982 17.9709 13.5876C17.9409 13.9769 17.896 14.3712 17.8361 14.7705ZM17.3569 7.58301H20.8908C20.3118 6.58474 19.5881 5.71625 18.7196 4.97754C17.8511 4.23882 16.8578 3.68978 15.7397 3.3304C16.0991 3.98926 16.4136 4.67307 16.6831 5.38184C16.9526 6.0906 17.1772 6.82433 17.3569 7.58301ZM10.3491 7.58301H14.9012C14.6616 6.70454 14.3522 5.87598 13.9728 5.09733C13.5935 4.31868 13.1443 3.56999 12.6252 2.85124C12.1061 3.56999 11.6568 4.31868 11.2775 5.09733C10.8982 5.87598 10.5887 6.70454 10.3491 7.58301ZM4.35954 7.58301H7.89339C8.07308 6.82433 8.29769 6.0906 8.56722 5.38184C8.83675 4.67307 9.1512 3.98926 9.51058 3.3304C8.39252 3.68978 7.39925 4.23882 6.53076 4.97754C5.66227 5.71625 4.93853 6.58474 4.35954 7.58301Z" fill="white"/>
</svg>
