<svg width="9" height="11" viewBox="0 0 9 11" fill="none" xmlns="http://www.w3.org/2000/svg">
<path d="M6.99127 10.052C6.61344 10.052 6.29 9.91743 6.02094 9.64837C5.75189 9.37932 5.61736 9.05587 5.61736 8.67805V1.80848C5.61736 1.43066 5.75189 1.10722 6.02094 0.838157C6.29 0.569099 6.61344 0.43457 6.99127 0.43457C7.36909 0.43457 7.69254 0.569099 7.9616 0.838157C8.23065 1.10722 8.36518 1.43066 8.36518 1.80848V8.67805C8.36518 9.05587 8.23065 9.37932 7.9616 9.64837C7.69254 9.91743 7.36909 10.052 6.99127 10.052ZM1.49562 10.052C1.11779 10.052 0.794349 9.91743 0.525291 9.64837C0.256233 9.37932 0.121704 9.05587 0.121704 8.67805V1.80848C0.121704 1.43066 0.256233 1.10722 0.525291 0.838157C0.794349 0.569099 1.11779 0.43457 1.49562 0.43457C1.87344 0.43457 2.19689 0.569099 2.46594 0.838157C2.735 1.10722 2.86953 1.43066 2.86953 1.80848V8.67805C2.86953 9.05587 2.735 9.37932 2.46594 9.64837C2.19689 9.91743 1.87344 10.052 1.49562 10.052Z" fill="white"/>
</svg>
