<svg width="8" height="9" viewBox="0 0 8 9" fill="none" xmlns="http://www.w3.org/2000/svg">
<path d="M0.495605 7.79842V0.688421C0.495605 0.493784 0.564301 0.330631 0.701692 0.198965C0.839084 0.0672982 0.999374 0.00146484 1.18256 0.00146484C1.23981 0.00146484 1.29992 0.0100518 1.36289 0.0272257C1.42586 0.0443996 1.48597 0.0701605 1.54321 0.104508L7.14191 3.65951C7.24495 3.7282 7.32224 3.81407 7.37376 3.91712C7.42528 4.02016 7.45104 4.12893 7.45104 4.24342C7.45104 4.35791 7.42528 4.46668 7.37376 4.56973C7.32224 4.67277 7.24495 4.75864 7.14191 4.82733L1.54321 8.38233C1.48597 8.41668 1.42586 8.44244 1.36289 8.45962C1.29992 8.47679 1.23981 8.48538 1.18256 8.48538C0.999374 8.48538 0.839084 8.41954 0.701692 8.28788C0.564301 8.15621 0.495605 7.99306 0.495605 7.79842Z" fill="white"/>
</svg>
