<svg width="12" height="12" viewBox="0 0 12 12" fill="none" xmlns="http://www.w3.org/2000/svg">
<path d="M5.99939 11.6663C5.85761 11.6663 5.73889 11.6184 5.64322 11.5225C5.54744 11.4267 5.49955 11.308 5.49955 11.1663V6.49967H0.832886C0.691219 6.49967 0.572497 6.45173 0.476719 6.35584C0.38083 6.25995 0.332886 6.14117 0.332886 5.99951C0.332886 5.85773 0.38083 5.73901 0.476719 5.64334C0.572497 5.54756 0.691219 5.49967 0.832886 5.49967H5.49955V0.833008C5.49955 0.691341 5.5475 0.572619 5.64339 0.476841C5.73927 0.380952 5.85805 0.333008 5.99972 0.333008C6.1415 0.333008 6.26022 0.380952 6.35589 0.476841C6.45166 0.572619 6.49955 0.691341 6.49955 0.833008V5.49967H11.1662C11.3079 5.49967 11.4266 5.54762 11.5224 5.64351C11.6183 5.7394 11.6662 5.85817 11.6662 5.99984C11.6662 6.14162 11.6183 6.26034 11.5224 6.35601C11.4266 6.45179 11.3079 6.49967 11.1662 6.49967H6.49955V11.1663C6.49955 11.308 6.45161 11.4267 6.35572 11.5225C6.25983 11.6184 6.14105 11.6663 5.99939 11.6663Z" fill="#004289"/>
</svg>
