<svg width="132" height="45" viewBox="0 0 132 45" fill="none" xmlns="http://www.w3.org/2000/svg">
<path d="M15.9136 21.9961H2.81885V19.4355H15.9136V21.9961ZM19.3838 29.3408H0.550293V26.769H19.3838V29.3408ZM17.2275 21.1201C17.2275 22.318 17.1938 23.3774 17.1265 24.2983C17.0591 25.2192 16.8869 26.2637 16.6099 27.4316L13.353 27.3643C13.5402 26.5856 13.6787 25.8481 13.7686 25.1519C13.8659 24.4556 13.9258 23.8341 13.9482 23.2876C13.9782 22.741 13.9969 22.0822 14.0044 21.311V21.1201V19.4355H17.2275V21.1201ZM17.104 38.9429H2.729V31.3286H17.104V38.9429ZM5.90723 36.3486H13.8921V33.8442H5.90723V36.3486ZM37.9482 23.5796H20.7207V21.0078H37.9482V23.5796ZM38.8017 37.1572H19.9682V34.563H38.8017V37.1572ZM30.9179 35.585H27.7172V31.98H30.9179V35.585ZM29.3232 24.3096C30.7607 24.3096 32.0148 24.4705 33.0854 24.7925C34.156 25.1069 34.9796 25.5711 35.5561 26.1851C36.1326 26.799 36.4209 27.5177 36.4209 28.3413C36.4209 29.1948 36.1326 29.9285 35.5561 30.5425C34.9796 31.1489 34.156 31.6206 33.0854 31.9575C32.0223 32.2869 30.7682 32.4554 29.3232 32.4629C27.8632 32.4554 26.5942 32.2869 25.5161 31.9575C24.4454 31.6206 23.6219 31.1489 23.0454 30.5425C22.4689 29.9285 22.1844 29.1948 22.1919 28.3413C22.1844 27.5103 22.4689 26.7915 23.0454 26.1851C23.6219 25.5711 24.4454 25.1069 25.5161 24.7925C26.5942 24.4705 27.8632 24.3096 29.3232 24.3096ZM29.3232 26.814C28.4622 26.8215 27.7509 26.8776 27.1894 26.9824C26.6354 27.0872 26.2161 27.252 25.9316 27.4766C25.6546 27.7012 25.5198 27.9894 25.5273 28.3413C25.5198 28.7082 25.6546 29.0039 25.9316 29.2285C26.2161 29.4456 26.6354 29.6104 27.1894 29.7227C27.7509 29.8275 28.4622 29.8799 29.3232 29.8799C30.1692 29.8799 30.8655 29.8275 31.4121 29.7227C31.9661 29.6104 32.3854 29.4456 32.6699 29.2285C32.9544 29.0039 33.0966 28.7082 33.0966 28.3413C33.0966 27.9969 32.9544 27.7124 32.6699 27.4878C32.3854 27.2557 31.9661 27.0872 31.4121 26.9824C30.8655 26.8776 30.1692 26.8215 29.3232 26.814ZM30.9179 22.6138H27.7172V18.7168H30.9179V22.6138ZM58.1972 31.1714H39.3637V28.6108H58.1972V31.1714ZM50.6503 34.5181H47.4609V30.228H50.6503V34.5181ZM55.8163 27.1396H41.6772V19.4131H55.8163V27.1396ZM44.8329 24.6353H52.6381V21.9062H44.8329V24.6353ZM56.1308 38.8306H41.4975V36.2363H56.1308V38.8306ZM44.7319 37.0898H41.4975V32.7998H44.7319V37.0898ZM66.6879 34.0464H63.4423V30.6885H66.6879V34.0464ZM75.4252 39.145H72.1571V18.5259H75.4252V39.145ZM77.9183 29.4531H74.2909V26.8027H77.9183V29.4531ZM58.557 33.2266C61.1475 33.2266 63.446 33.1966 65.4525 33.1367C67.459 33.0768 69.3794 32.9196 71.2137 32.665L71.4271 34.9897C70.087 35.2518 68.6944 35.4465 67.2494 35.5737C65.8044 35.6935 64.4568 35.7684 63.2064 35.7983C61.9636 35.8283 60.5523 35.8433 58.9725 35.8433L58.557 33.2266ZM71.1127 23.2764H58.9501V20.7607H71.1127V23.2764ZM65.0931 23.9727C66.0739 23.9727 66.9537 24.1374 67.7323 24.4668C68.5109 24.7962 69.1174 25.2567 69.5516 25.8481C69.9934 26.4321 70.2142 27.106 70.2142 27.8696C70.2142 28.6258 69.9934 29.2996 69.5516 29.8911C69.1174 30.4751 68.5109 30.9318 67.7323 31.2612C66.9537 31.5832 66.0739 31.7441 65.0931 31.7441C64.0974 31.7441 63.2102 31.5832 62.4315 31.2612C61.6529 30.9318 61.0427 30.4751 60.601 29.8911C60.1667 29.2996 59.9533 28.6258 59.9608 27.8696C59.9533 27.106 60.1667 26.4321 60.601 25.8481C61.0427 25.2567 61.6529 24.7962 62.4315 24.4668C63.2102 24.1374 64.0974 23.9727 65.0931 23.9727ZM65.0931 26.4097C64.6739 26.4172 64.307 26.4733 63.9926 26.5781C63.6856 26.6829 63.446 26.8477 63.2738 27.0723C63.1091 27.2894 63.0305 27.5552 63.038 27.8696C63.0305 28.1841 63.1091 28.4499 63.2738 28.667C63.446 28.8766 63.6856 29.0376 63.9926 29.1499C64.2995 29.2547 64.6664 29.3071 65.0931 29.3071C65.4974 29.3071 65.8493 29.2547 66.1488 29.1499C66.4558 29.0376 66.6916 28.8766 66.8563 28.667C67.0285 28.4499 67.1146 28.1841 67.1146 27.8696C67.1146 27.5552 67.0285 27.2894 66.8563 27.0723C66.6916 26.8477 66.4558 26.6829 66.1488 26.5781C65.8493 26.4733 65.4974 26.4172 65.0931 26.4097ZM66.6879 22.6587H63.4423V18.6719H66.6879V22.6587ZM96.2806 39.145H93.1922V18.5259H96.2806V39.145ZM94.2142 28.9702H90.9012V26.3647H94.2142V28.9702ZM91.7772 38.2354H88.7225V18.8066H91.7772V38.2354ZM84.2079 23.4673C84.2079 25.3091 84.0693 26.9862 83.7923 28.4985C83.5228 30.0034 83.0549 31.3473 82.3885 32.5303C81.7222 33.7132 80.8275 34.6416 79.7044 35.3154L77.7166 32.8335C78.7274 32.2495 79.5322 31.4821 80.1312 30.5312C80.7302 29.5729 81.1532 28.506 81.4002 27.3306C81.6473 26.1551 81.7671 24.8674 81.7596 23.4673V21.7153H84.2079V23.4673ZM84.9154 23.4673C84.9229 24.755 85.0539 25.9455 85.3084 27.0386C85.563 28.1242 85.9898 29.1087 86.5887 29.9922C87.1952 30.8757 88.0038 31.5794 89.0145 32.1035L87.1615 34.5518C86.0085 33.9453 85.0801 33.0881 84.3763 31.98C83.68 30.8719 83.1821 29.6066 82.8827 28.1841C82.5907 26.7616 82.4447 25.1893 82.4447 23.4673V21.7153H84.9154V23.4673ZM87.8578 23.1416H78.4915V20.5698H87.8578V23.1416ZM114.048 33.4512H110.802V18.5596H114.048V33.4512ZM116.743 26.6567H113.104V24.0063H116.743V26.6567ZM100.133 27.5439C102.506 27.5439 104.333 27.5028 105.614 27.4204C106.894 27.3381 108.122 27.1733 109.297 26.9263L109.645 29.498C108.432 29.7526 107.148 29.9211 105.793 30.0034C104.446 30.0858 102.559 30.127 100.133 30.127H98.3699V27.5439H100.133ZM107.702 22.7261H101.593V28.9253H98.3699V20.1543H107.702V22.7261ZM114.721 38.8306H100.526V36.2363H114.721V38.8306ZM103.772 37.584H100.526V31.8228H103.772V37.584Z" fill="#454B52"/>
<path d="M109.582 9.48669C109.582 9.78791 109.625 10.1001 109.744 10.3958C110.267 11.7102 111.601 12.5208 113.296 11.8362C113.701 11.6719 124.914 7.08792 124.914 7.08792C124.914 7.08792 120.498 18.4465 120.331 18.8682C119.688 20.4947 120.46 21.968 121.772 22.4609C122.064 22.5704 122.366 22.6252 122.663 22.6197C123.737 22.6142 124.682 21.9734 125.146 20.6919C125.216 20.5002 130.739 5.11633 130.858 4.7494C130.928 4.53033 131.058 4.01553 131.058 3.65955C131.058 2.89829 130.783 2.18086 130.248 1.63867C129.724 1.10196 129.023 0.828125 128.283 0.828125C127.921 0.828125 127.63 0.893845 127.187 1.03624C126.922 1.12386 112.686 6.49645 111.471 6.95648C110.257 7.41652 109.582 8.40232 109.587 9.48669" fill="#ED1C24"/>
</svg>
