<svg width="190" height="30" viewBox="0 0 190 30" fill="none" xmlns="http://www.w3.org/2000/svg">
<path d="M189.824 15.214L184.258 15.1431V18.9194C184.258 23.7771 183.407 27.3407 182.999 28.4044C182.733 28.7058 182.113 28.8831 181.741 28.7767C181.51 27.9257 181.032 25.2841 181.032 20.8873V3.90295C181.032 3.19379 179.029 1.72228 178.284 1.49181C178.089 1.42089 178.727 0.676273 178.922 0.676273C180.447 0.676273 184.453 1.59818 184.364 2.30734C184.293 2.78602 184.258 3.35335 184.258 3.97386V13.6893L188.476 12.0228C188.849 11.881 190.515 15.214 189.841 15.214M178.267 17.0578C178.851 17.8734 177.274 21.3305 176.707 20.515C175.891 19.3626 173.658 15.9586 171.655 13.6893C168.978 17.4302 165.646 20.4441 162.65 22.0397C162.278 22.0042 161.835 21.4546 161.835 21.1178C165.54 17.8202 169.723 12.0405 171.478 6.77504C171.584 6.47365 170.325 5.55174 169.776 5.21489C169.599 5.10852 170.361 4.54119 170.556 4.54119C171.566 4.54119 174.367 5.69357 175.04 6.17226C175.413 6.43819 175.448 6.61548 175.271 7.0587C174.526 8.99116 173.534 10.835 172.417 12.537C174.934 14.2744 177.717 16.2778 178.267 17.0578ZM160.275 15.5332L154.674 15.4268V18.9194C154.674 23.7771 153.894 27.3407 153.451 28.4044C153.185 28.7058 152.564 28.8831 152.228 28.7767C151.962 27.9257 151.519 25.2841 151.519 20.8873V3.90295C151.519 3.19379 149.516 1.7932 148.771 1.49181C148.594 1.42089 149.214 0.676273 149.409 0.676273C150.934 0.676273 154.851 1.59818 154.78 2.30734C154.745 2.78602 154.674 3.35335 154.674 3.97386V13.9907L158.91 12.3597C159.318 12.1824 160.984 15.5154 160.275 15.5154M142.071 17.1997C143.631 17.1997 144.783 16.1182 144.783 14.4517C144.783 12.7852 143.702 11.6682 142.071 11.6682C140.44 11.6682 139.359 12.7852 139.359 14.4517C139.359 16.1182 140.44 17.1997 142.071 17.1997ZM136.771 3.03423C136.735 2.8924 136.913 2.43144 137.108 2.44917C138.224 2.66192 139.359 2.85694 140.777 3.03423L144.233 3.40654C144.535 3.44199 145.864 5.26808 144.978 5.26808H139.749C138.862 5.26808 136.824 3.33562 136.753 3.03423M133.297 7.16508C133.261 7.0587 133.474 6.6864 133.563 6.72185C134.147 6.9346 136.221 6.98779 138.189 6.95233L145.261 6.88141C147.3 6.84596 147.903 5.8354 148.222 5.8354C148.558 5.8354 149.852 7.62603 149.852 8.45929C149.852 8.60112 149.711 8.68977 149.48 8.68977C149.143 8.68977 147.176 8.5834 145.616 8.5834L138.012 8.61885C136.789 8.61885 135.973 8.88479 135.601 9.22164C134.644 8.9557 133.456 7.51966 133.332 7.14735M150.189 21.0646C147.14 22.4652 141.291 23.2807 137.285 23.7771C136.204 23.919 135.548 24.114 134.91 24.4863C133.882 24.2204 132.393 22.7134 132.251 22.1461C132.286 21.9688 132.428 21.8092 132.517 21.7028C133.633 21.7028 135.264 21.7383 137.232 21.6319C138.455 21.561 139.607 21.4901 140.653 21.4014L140.458 18.4762C137.87 18.0329 136.275 16.5082 136.275 14.3985C136.275 12.0937 138.278 10.5336 141.433 10.3563C141.468 10.2145 141.504 10.1258 141.504 9.98398C141.504 9.71805 141.433 9.39893 141.06 9.13299C141.06 8.49475 143.099 9.13299 143.099 9.46984C143.099 9.61168 142.922 10.0194 142.833 10.3563C145.917 10.569 147.867 12.1292 147.867 14.3985C147.867 16.5082 146.201 18.0329 143.648 18.4762L143.507 21.1178C146.733 20.7455 148.913 20.2313 150.366 19.7527C150.668 19.6463 150.544 20.8696 150.171 21.0469M111.565 4.52346L111.53 10.1967H119.435L119.63 4.52346H111.547H111.565ZM106.442 3.2647C106.407 3.08741 106.885 2.52009 107.116 2.52009C107.701 2.52009 109.722 2.591 111.051 2.82148H118.584C119.542 2.82148 120.038 2.67965 120.41 2.3428C120.818 2.20096 123.459 2.60873 123.406 3.05196L122.289 9.87761C122.768 10.3208 123.406 11.2073 123.406 11.686C123.406 11.8278 123.264 11.9164 123.034 11.9164C122.697 11.9164 121.438 11.881 119.542 11.881H111.193C110.98 12.2533 110.714 12.5901 110.413 12.9447C110.112 13.2461 109.562 13.3879 109.154 13.2816C108.818 12.466 108.534 10.9059 108.304 8.08698L108.002 4.55892C107.967 4.22207 107.01 3.47745 106.442 3.2647ZM125.249 27.3761C125.249 27.5179 125.143 27.6066 124.877 27.6066H121.385L110.998 27.642C108.109 27.642 107.541 26.6492 107.541 24.7168V21.8269C107.541 21.3128 106.46 20.4264 105.84 20.3377C105.645 20.3022 106.318 19.4513 106.584 19.4513C107.772 19.4513 109.544 19.7172 110.431 20.054C110.608 20.125 110.874 20.2313 110.803 20.6036C110.732 21.0469 110.732 21.6851 110.732 22.2347V24.7522C110.732 25.7982 111.104 25.9401 112.026 25.9401L120.747 25.9046C122.59 25.9046 123.193 24.8763 123.423 24.8763C123.902 24.8763 125.249 26.5783 125.249 27.3584M128.546 16.3841C128.546 16.5614 128.404 16.6501 128.174 16.6501H117.414V18.618C117.414 20.6214 116.67 22.3588 116.156 23.1389C115.89 23.4403 115.305 23.5821 114.933 23.4757C114.632 22.5538 114.188 21.3305 114.188 19.0967V16.6501H106.956C105.733 16.6501 104.918 16.9869 104.546 17.3238C103.589 17.0578 101.656 15.5509 101.656 15.214C101.656 15.0722 101.834 14.6999 101.922 14.7354C102.507 14.9481 104.581 14.9658 106.549 14.9658L123.193 14.9304C125.302 14.9304 126.011 13.7425 126.277 13.7425C126.65 13.7425 128.546 15.5509 128.546 16.3664M81.1301 7.78559C81.1301 9.96626 82.5482 11.42 84.693 11.42C86.8378 11.42 88.4686 9.96626 88.4686 7.78559C88.4686 5.60493 86.9441 4.15115 84.7284 4.15115C82.5127 4.15115 81.1301 5.62266 81.1301 7.78559ZM77.9041 7.89197C77.9041 4.84258 80.3502 2.80375 84.1258 2.591C84.1612 2.48463 84.1967 2.39598 84.1967 2.28961C84.1967 1.98822 84.1258 1.65137 83.6826 1.33225C83.6826 0.658544 85.9515 1.33225 85.9515 1.70455C85.9515 1.84639 85.7743 2.25415 85.6856 2.591C89.2839 2.85694 91.6592 4.89577 91.6592 7.89197C91.6592 11.0477 88.9117 13.122 84.7993 13.122C80.687 13.122 77.9041 11.0477 77.9041 7.89197ZM98.2176 17.1642C98.2176 17.3061 98.0758 17.3947 97.8454 17.3947H90.4715V19.0258C90.4715 23.6176 89.6562 27.1811 89.213 28.2271C88.9471 28.5285 88.3268 28.6703 87.99 28.5994C87.7241 27.7484 87.2455 25.1068 87.2455 20.9937V17.3947L82.0519 17.4302V18.4584C82.0519 23.0148 81.2365 26.5783 80.8288 27.6243C80.5629 27.9257 79.9425 28.0675 79.5703 27.9966C79.3399 27.1456 78.8613 24.504 78.8613 20.4264V17.4302H76.6278C75.4048 17.4302 74.5894 17.767 74.2172 18.1039C73.26 17.8379 71.3279 16.331 71.3279 15.9586C71.3279 15.8523 71.5051 15.48 71.5938 15.5154C72.1787 15.7104 74.2526 15.7459 76.2202 15.7459L92.8645 15.675C94.9739 15.675 95.6829 14.4871 95.9488 14.4871C96.321 14.4871 98.2176 16.3132 98.2176 17.1288M51.0675 6.42046C51.0675 8.282 52.4678 9.61168 54.5595 9.61168C56.6511 9.61168 58.0514 8.282 58.0514 6.42046C58.0514 4.55892 56.6511 3.30016 54.5595 3.30016C52.4678 3.30016 51.0675 4.59438 51.0675 6.42046ZM47.8414 6.56229C47.8414 3.88522 50.1812 1.93503 53.815 1.70455C53.8504 1.52726 53.9213 1.40316 53.9213 1.22587C53.9213 0.924479 53.815 0.605357 53.4073 0.303964C53.4073 -0.405195 55.6762 0.303964 55.6762 0.640815C55.6762 0.853563 55.4457 1.31452 55.3039 1.68682C58.9022 1.9173 61.3129 3.86749 61.3129 6.54456C61.3129 9.36347 58.5654 11.3668 54.5595 11.3668C50.5535 11.3668 47.8414 9.36347 47.8414 6.54456M63.9363 27.9257C63.9363 28.103 63.7945 28.1562 63.5641 28.1562H50.3585C48.0896 28.1562 47.2919 27.3761 47.2388 25.6032L47.1679 23.3339C47.1679 22.9971 46.2816 22.5538 45.7144 22.3056C45.6789 22.1283 46.193 21.561 46.4588 21.561C47.097 21.561 49.5254 21.7028 50.3939 22.0042H58.9908L59.0263 19.2562H50.4294C49.3836 19.2562 48.6923 19.5222 48.32 19.8768C47.097 19.6995 46.1043 18.1039 46.0866 17.8734C46.0512 17.6961 46.2284 17.3592 46.3879 17.3947C47.4692 17.5897 48.8341 17.5897 50.8016 17.5897H57.8387C58.7959 17.5897 59.2922 17.4833 59.6644 17.111C60.0721 17.0756 62.7841 17.377 62.6955 17.8202L61.8447 21.8269C62.4828 22.3056 62.8905 23.1212 62.8905 23.3162C62.8905 23.4935 62.7841 23.6176 62.6246 23.6176C62.3233 23.6176 60.3912 23.5821 58.8136 23.5821H50.3939V25.0713C50.3939 26.2237 50.7307 26.4542 52.2551 26.4542H59.6999C61.8092 26.4542 62.1106 25.5678 62.341 25.5678C62.8196 25.5678 63.9363 27.1634 63.9363 27.8725M67.8182 14.7885C67.8182 14.9304 67.6764 15.019 67.446 15.019H62.6601L46.2461 15.0545C45.0585 15.0545 44.2431 15.3913 43.8709 15.6927C42.8783 15.4268 41.1234 13.9553 40.9816 13.583C40.9462 13.4766 41.1589 13.1043 41.2475 13.1397C41.8325 13.3525 43.8886 13.3879 45.8739 13.3879L62.4828 13.317C64.5567 13.317 65.2657 12.1292 65.5671 12.1292C65.9393 12.1292 67.8005 13.9553 67.8005 14.7708M30.3108 14.7176C30.3108 15.019 30.0804 15.019 29.265 15.2672C28.9282 15.3736 28.7509 15.9055 28.4851 16.7565C27.9001 18.5471 26.0389 21.4369 22.1747 21.4369C18.3106 21.4369 16.2721 18.1393 16.1303 17.962C15.9353 17.6961 15.6163 17.4479 15.3504 17.4479C15.1731 17.4479 15.049 17.5188 14.9427 17.5897C13.5424 18.5471 12.018 19.6285 12.018 22.1106C12.018 23.7417 13.3828 25.6032 15.6872 25.6032C17.6547 25.6032 18.9487 23.7417 19.3564 22.4475C19.4982 22.0042 19.4627 21.8269 19.6932 21.8269C19.9945 21.8269 20.1009 22.5006 20.5085 22.5006C20.8453 22.5006 20.739 22.3234 21.1821 22.3234C21.5898 22.3234 21.6962 22.8729 22.0329 22.8729C22.5115 22.8729 23.1497 22.4652 23.4687 22.4652C23.5751 22.4652 23.7346 22.4652 23.7346 22.5716C23.7346 22.7488 23.4333 22.9084 23.1497 23.1566C22.5647 23.6708 22.1393 23.9721 21.6962 24.7168C20.1363 27.3584 18.3283 27.8371 17.4066 28.1207C17.0698 28.2271 16.733 28.3867 16.5912 28.7058C16.0771 29.8582 15.7758 30 15.634 30C15.4567 30 15.4036 29.805 15.3681 29.3618C15.3327 28.8831 15.0668 28.3335 14.145 28.1739C11.8053 27.7307 8.91599 25.355 8.91599 21.6142C8.91599 18.2457 11.4685 16.9337 12.7624 15.6395C12.9397 15.4622 13.0638 15.2672 13.0638 14.9658V14.8595C13.0638 14.6999 13.0283 14.4871 12.8156 14.2212C11.5217 12.5901 10.5467 11.5087 8.77418 11.5087C6.84209 11.5087 5.14043 13.1043 5.14043 15.4091C5.14043 17.8911 6.3635 18.7421 7.58656 19.0435C7.99425 19.1499 8.13606 19.1853 8.13606 19.3094C8.13606 19.5754 7.87017 19.5222 7.87017 19.9299C7.87017 20.2313 8.10061 20.1959 8.10061 20.6746C8.10061 21.0114 7.79927 21.1178 7.79927 21.6319C7.79927 22.0397 7.99425 22.1815 7.99425 22.412C7.99425 22.7134 8.17151 22.6779 8.17151 23.3339C8.17151 23.5112 8.24241 23.6353 8.10061 23.6353C7.9588 23.6353 7.79927 23.4048 7.58656 23.0857C7.10797 22.3765 6.59393 21.9333 6.22169 21.6497C3.26151 19.5044 3.15516 18.5648 2.41068 17.0933C2.23343 16.7565 2.18025 16.1714 1.82574 16.0118C0.744476 15.4622 0 15.3027 0 14.4162C0 14.0085 0.478592 14.4162 1.22307 14.4162C1.63076 14.4162 2.10935 14.4871 2.33978 13.6362C2.85382 11.8278 4.9809 8.93797 8.721 8.93797C12.6915 8.93797 14.6591 12.2356 14.8009 12.4129C15.0668 12.7852 15.3149 12.927 15.5808 12.927C15.7581 12.927 15.8822 12.927 16.1835 12.6611C18.7005 10.4272 18.8955 9.43439 18.8955 8.14017C18.8955 6.50911 17.6015 4.61211 15.2972 4.61211C12.9929 4.61211 11.8939 6.43819 11.5926 7.80332C11.4862 8.24655 11.4153 8.47702 11.2203 8.47702C10.919 8.47702 10.919 8.06926 10.5822 8.06926C10.0327 8.06926 9.97952 8.29973 9.69591 8.29973C9.32368 8.29973 9.32368 7.62603 8.77418 7.62603C8.63238 7.62603 8.33104 7.80332 8.13606 7.80332C7.62202 7.80332 7.58656 7.9097 7.35613 7.9097C7.09025 7.9097 6.80664 7.76786 6.80664 7.57284C6.80664 7.37783 6.98389 7.23599 7.51566 6.97006C8.22469 6.59775 8.88053 6.33182 9.21732 5.56947C10.2631 3.22925 12.5852 2.48463 13.4715 2.14778C13.8083 2.00595 13.9855 1.88184 14.145 1.56272C14.8541 0.268506 15.1731 0.126675 15.3681 0.126675C15.5631 0.126675 15.5454 0.463525 15.634 0.871292C15.7403 1.34997 15.7403 1.72228 16.5203 1.9173C18.736 2.50236 21.9798 4.54119 21.9798 8.26427C21.9798 11.9874 18.3106 14.3453 18.1333 14.4871C17.7256 14.7885 17.5838 15.0367 17.5838 15.2672C17.5838 15.4445 17.6902 15.6395 17.7965 15.8523C18.6828 17.6252 20.2072 18.7776 21.9798 18.7776C24.0891 18.7776 25.7199 16.8096 25.7199 14.7708C25.7199 12.732 24.355 11.5087 23.1674 11.1364C22.7242 10.9945 22.5293 10.9945 22.5293 10.7641C22.5293 10.4981 22.8306 10.5868 22.8306 10.179C22.8306 9.87761 22.6888 9.94853 22.6888 9.46984C22.6888 9.13299 23.0965 9.02662 23.0965 8.51248C23.0965 8.10471 22.9015 7.96288 22.9015 7.73241C22.9015 7.43101 22.7951 7.46647 22.7951 6.8105C22.7951 6.63321 22.7242 6.50911 22.866 6.50911C23.0433 6.50911 23.2028 6.73958 23.4155 7.0587C23.8941 7.76786 24.2664 8.31746 24.6386 8.54794C27.3152 10.2499 27.9001 11.3314 28.5205 12.8561C28.6623 13.1929 28.7864 13.778 29.1941 14.0085C29.5309 14.2212 30.2754 14.4517 30.2754 14.7176" fill="white"/>
</svg>
