<svg width="109" height="36" viewBox="0 0 109 36" fill="none" xmlns="http://www.w3.org/2000/svg">
<g clip-path="url(#clip0_50_958)">
<path d="M86.77 8.80371C86.77 9.10998 86.8147 9.42738 86.9376 9.72807C87.4794 11.0645 88.859 11.8886 90.6128 11.1926C91.0317 11.0255 102.633 6.36473 102.633 6.36473C102.633 6.36473 98.0638 17.9137 97.8906 18.3425C97.226 19.9963 98.0247 21.4942 99.382 21.9954C99.6836 22.1067 99.9964 22.1624 100.304 22.1568C101.415 22.1513 102.393 21.4998 102.873 20.1968C102.945 20.0019 108.659 4.36009 108.782 3.98701C108.855 3.76427 108.989 3.24084 108.989 2.87889C108.989 2.10487 108.704 1.37541 108.151 0.82413C107.609 0.278422 106.883 0 106.118 0C105.744 0 105.442 0.0668213 104.984 0.211601C104.71 0.300696 89.9817 5.76334 88.7249 6.23109C87.4682 6.69884 86.77 7.70116 86.7756 8.80371" fill="#ED1C24"/>
<path d="M59.1722 17.6241V17.29H50.241V19.5675H55.4299C54.0782 23.833 49.2468 26.3388 49.2468 26.3388L50.5371 28.1374C50.5371 28.1374 59.1722 24.5847 59.1722 17.6186V17.6241Z" fill="white"/>
<path d="M56.3515 32.7482V28.3213H53.1846V33.3106C53.1846 34.8698 54.4301 35.9946 56.1393 35.9946H65.9529V33.7227H57.4574C56.6866 33.7227 56.3627 33.4164 56.3459 32.7482H56.3515Z" fill="white"/>
<path d="M58.8147 21.4888V23.7663H62.5849V29.2568H65.7518V17.0508H62.5849V21.4888H58.8147Z" fill="white"/>
<path d="M86.1052 26.1997H89.2721V16.9561H86.1052V19.8349H82.8042V22.0846H86.1052V26.1997Z" fill="white"/>
<path d="M15.0695 28.1484H3.01611V33.3104C3.01611 34.8696 4.26167 35.9944 5.97081 35.9944H15.7733V28.8501C15.7733 28.4603 15.4549 28.1484 15.0695 28.1484ZM12.6063 33.7225H7.28898C6.51819 33.7225 6.18865 33.4218 6.17748 32.748V30.4315H12.6063V33.7225Z" fill="white"/>
<path d="M15.9856 17.3236V17.2178H2.84299V19.4953H12.6734C12.6734 19.6456 12.6734 19.8349 12.6734 20.0187C12.6734 22.1347 12.5673 23.5268 12.5114 24.0948H0V26.3723H19.2754V24.0948H15.3321C15.522 23.382 15.9911 21.1769 15.9911 17.3236H15.9856Z" fill="white"/>
<path d="M35.6687 29.2959C38.2995 28.7224 40.2432 26.7567 40.2432 24.4291C40.2432 23.1762 39.6791 22.0291 38.7519 21.1437H42.1143V18.8662H35.6687V16.7168H32.5074V18.8662H26.0618V21.1437H29.4242C28.497 22.0291 27.9329 23.1706 27.9329 24.4291C27.9329 26.7623 29.8766 28.7224 32.513 29.2959V31.6012H24.4587V33.8787H43.7285V31.6012H35.6743V29.2959H35.6687ZM31.1836 24.3567C31.1836 22.8031 32.485 21.5335 34.0825 21.5335C35.6799 21.5335 36.9813 22.7975 36.9813 24.3567C36.9813 25.9159 35.6799 27.1799 34.0825 27.1799C32.485 27.1799 31.1836 25.9159 31.1836 24.3567Z" fill="white"/>
<path d="M80.0506 26.0045H83.117C82.9885 25.2639 81.8659 19.2834 78.9447 17.2119H75.4091L72.689 26.0769H75.8671L77.6768 19.6954C79.2016 21.4773 79.9445 25.4198 80.045 26.0045H80.0506Z" fill="white"/>
<path d="M80.6817 33.8007C79.8774 33.8007 79.7322 33.5947 79.7322 32.9153V32.6313H89.2777V27.8425C89.2777 27.4304 88.9761 27.1074 88.546 27.1074H76.6211V29.3014H86.2448V30.4763H76.7049V33.3107C76.7049 34.9534 77.889 35.9947 79.6596 35.9947H89.4844V33.8007H80.6817Z" fill="white"/>
</g>
<defs>
<clipPath id="clip0_50_958">
<rect width="109" height="36" fill="white"/>
</clipPath>
</defs>
</svg>
